#define font10x16_width 160
#define font10x16_height 256
static unsigned char font10x16_bits[] = {
   0x00, 0x00, 0x00, 0x00, 0x00, 0x00, 0x00, 0x00, 0x00, 0x00, 0x00, 0x00,
   0x00, 0x00, 0x00, 0x00, 0x00, 0x00, 0x00, 0x00, 0x00, 0x00, 0x00, 0x00,
   0x00, 0x00, 0x00, 0xf0, 0xff, 0xf3, 0x00, 0x00, 0x00, 0x00, 0x00, 0x00,
   0x00, 0x00, 0x00, 0x00, 0x00, 0x00, 0x00, 0x00, 0x00, 0x00, 0x00, 0xf0,
   0xff, 0xf3, 0x00, 0x00, 0x00, 0x00, 0x00, 0x00, 0x00, 0x00, 0x00, 0x00,
   0x00, 0x00, 0x00, 0x80, 0x01, 0x80, 0x01, 0xf0, 0xff, 0xe1, 0x00, 0x00,
   0x00, 0x00, 0x00, 0x38, 0xc0, 0xe1, 0x9f, 0x7f, 0x00, 0x80, 0x00, 0x80,
   0x02, 0x40, 0x79, 0xf0, 0xff, 0xc0, 0x00, 0x00, 0x00, 0x00, 0x00, 0xee,
   0x70, 0x27, 0x90, 0x40, 0x00, 0xc0, 0x01, 0x80, 0x04, 0x20, 0x85, 0xff,
   0x5f, 0x8c, 0x00, 0x00, 0x00, 0x00, 0x00, 0x82, 0x90, 0x24, 0x90, 0x50,
   0x00, 0xe0, 0x03, 0x80, 0x08, 0x10, 0x05, 0xf8, 0x5f, 0x9e, 0x00, 0x00,
   0x00, 0x00, 0x00, 0x83, 0xd9, 0x2d, 0x90, 0x48, 0x00, 0xf0, 0xe7, 0xbf,
   0x10, 0x08, 0x05, 0xf8, 0x07, 0x3f, 0x00, 0x00, 0x00, 0x00, 0x00, 0x01,
   0xe9, 0x2b, 0x90, 0x4a, 0x00, 0xf8, 0xcf, 0x9f, 0x20, 0x04, 0x05, 0xf8,
   0x07, 0x3f, 0x00, 0x00, 0x00, 0x00, 0x00, 0x83, 0xd9, 0x2d, 0x90, 0x44,
   0x00, 0x00, 0x80, 0x8f, 0x10, 0x08, 0x05, 0xf8, 0x63, 0x9e, 0x00, 0x00,
   0x00, 0x00, 0x00, 0x82, 0x90, 0x24, 0x90, 0x40, 0x00, 0x00, 0x00, 0x87,
   0x08, 0x10, 0x05, 0xf8, 0x63, 0x8c, 0x00, 0x00, 0x00, 0x00, 0x00, 0xee,
   0x70, 0xe7, 0x9f, 0x7f, 0x00, 0x00, 0x00, 0x82, 0x04, 0x20, 0x05, 0xf8,
   0xf9, 0xc0, 0x00, 0x00, 0x00, 0x00, 0x00, 0x38, 0xc0, 0x01, 0x00, 0x00,
   0x00, 0x00, 0x00, 0x80, 0x02, 0x40, 0xf9, 0xf7, 0xf9, 0xe1, 0x00, 0x00,
   0x00, 0x00, 0x00, 0x00, 0x00, 0x00, 0x00, 0x00, 0x00, 0x00, 0x00, 0x80,
   0x01, 0x80, 0x01, 0xf0, 0xfc, 0xf3, 0x00, 0x00, 0x00, 0x00, 0x00, 0x00,
   0x00, 0x00, 0x00, 0x00, 0x00, 0x00, 0x00, 0x00, 0x00, 0x00, 0x00, 0xf0,
   0xfc, 0xf3, 0x00, 0x00, 0x00, 0x00, 0x00, 0x00, 0x00, 0x00, 0x00, 0x00,
   0x00, 0x00, 0x00, 0x00, 0x00, 0x00, 0x00, 0x00, 0x00, 0x00, 0x00, 0x00,
   0x00, 0x00, 0x00, 0x00, 0x00, 0x00, 0x00, 0x00, 0x00, 0x00, 0x00, 0x00,
   0x00, 0x00, 0x00, 0x00, 0x00, 0x00, 0x00, 0x00, 0x00, 0x00, 0x00, 0x00,
   0x00, 0x00, 0x00, 0x00, 0x00, 0x00, 0x00, 0x00, 0x00, 0x00, 0x00, 0x00,
   0x00, 0x00, 0x00, 0x00, 0x00, 0x00, 0x00, 0x00, 0x00, 0x00, 0x00, 0x00,
   0x00, 0x00, 0x00, 0x00, 0x00, 0x00, 0x00, 0x00, 0x00, 0x00, 0x00, 0x00,
   0x00, 0x00, 0x00, 0x00, 0x00, 0x00, 0x00, 0x00, 0x00, 0x00, 0x00, 0x00,
   0x00, 0x00, 0x00, 0x00, 0x00, 0x00, 0x00, 0x00, 0x00, 0x00, 0x00, 0x00,
   0x00, 0x00, 0x00, 0x00, 0x00, 0x00, 0x00, 0x00, 0x00, 0x00, 0x00, 0x00,
   0x00, 0x00, 0x00, 0x00, 0x00, 0x00, 0x00, 0x00, 0x00, 0x00, 0x00, 0x00,
   0x00, 0x00, 0x00, 0x00, 0x00, 0x00, 0x00, 0x00, 0x00, 0x00, 0x00, 0x00,
   0x00, 0x00, 0x00, 0x00, 0x00, 0x00, 0x00, 0x00, 0x00, 0x00, 0x00, 0x00,
   0x00, 0x00, 0x00, 0x00, 0x00, 0x00, 0x00, 0x00, 0x00, 0x00, 0x00, 0x00,
   0x00, 0x00, 0x00, 0x00, 0x00, 0x00, 0x00, 0x00, 0x00, 0x00, 0x00, 0x00,
   0x00, 0x00, 0x00, 0x00, 0x00, 0x00, 0x00, 0x00, 0x00, 0x00, 0x00, 0x00,
   0x00, 0x00, 0x00, 0x00, 0x00, 0x00, 0x00, 0x00, 0x00, 0x00, 0x00, 0x00,
   0x00, 0x00, 0x00, 0x00, 0x00, 0x00, 0x00, 0x00, 0x00, 0x00, 0x00, 0x00,
   0x00, 0x00, 0x00, 0x00, 0x00, 0x00, 0x00, 0x00, 0x00, 0x00, 0x00, 0x00,
   0x00, 0x00, 0x00, 0x00, 0x00, 0x00, 0x00, 0x00, 0x00, 0x00, 0x00, 0x00,
   0x00, 0x00, 0x00, 0x00, 0x00, 0x00, 0x00, 0x00, 0x00, 0x00, 0x00, 0x00,
   0x00, 0x00, 0x00, 0x00, 0x00, 0x00, 0x00, 0x00, 0x00, 0x00, 0x00, 0x00,
   0x00, 0x00, 0x00, 0x00, 0x00, 0x00, 0x00, 0x00, 0x00, 0x00, 0x00, 0x00,
   0x00, 0x00, 0x00, 0x00, 0x00, 0x00, 0x00, 0x00, 0x00, 0x00, 0x00, 0x00,
   0x00, 0x00, 0x00, 0x00, 0x00, 0x00, 0x00, 0x00, 0x00, 0x00, 0x00, 0x00,
   0x00, 0x00, 0x00, 0x00, 0x00, 0x00, 0x00, 0x00, 0x00, 0x00, 0x00, 0x00,
   0x00, 0x00, 0x00, 0x00, 0x00, 0x00, 0x00, 0x00, 0x00, 0x00, 0x00, 0x00,
   0x00, 0x00, 0x00, 0x00, 0x00, 0x00, 0x00, 0x00, 0x00, 0x00, 0x00, 0x00,
   0x00, 0x00, 0x00, 0x00, 0x00, 0x00, 0x00, 0x00, 0x00, 0x00, 0x00, 0x00,
   0x00, 0x00, 0x00, 0x00, 0x00, 0x00, 0x00, 0x00, 0x00, 0x00, 0x00, 0x00,
   0x00, 0x00, 0x00, 0x00, 0x00, 0x00, 0x00, 0x00, 0x00, 0x00, 0x00, 0x00,
   0x00, 0x00, 0x00, 0x00, 0x00, 0x10, 0x00, 0x00, 0x00, 0x00, 0x00, 0x00,
   0x00, 0x00, 0x00, 0x00, 0x00, 0x00, 0x00, 0x00, 0x00, 0x00, 0x00, 0x00,
   0x00, 0x10, 0x00, 0x00, 0x00, 0x00, 0x80, 0x40, 0x00, 0x00, 0x00, 0x00,
   0x00, 0x00, 0x00, 0x00, 0x00, 0x40, 0x00, 0x05, 0x24, 0x38, 0x30, 0x04,
   0x03, 0x10, 0x40, 0x80, 0x00, 0x02, 0x00, 0x00, 0x00, 0x00, 0x00, 0x40,
   0x00, 0x40, 0x00, 0x05, 0x24, 0x54, 0x48, 0x82, 0x04, 0x10, 0x20, 0x00,
   0x81, 0x0a, 0x00, 0x00, 0x00, 0x00, 0x00, 0x40, 0x00, 0x40, 0x00, 0x05,
   0x24, 0x54, 0x48, 0x82, 0x04, 0x10, 0x10, 0x00, 0x02, 0x07, 0x08, 0x00,
   0x00, 0x00, 0x00, 0x20, 0x00, 0x40, 0x00, 0x85, 0x7f, 0x14, 0x48, 0x81,
   0x04, 0x00, 0x10, 0x00, 0x02, 0x07, 0x08, 0x00, 0x00, 0x00, 0x00, 0x20,
   0x00, 0x40, 0x00, 0x00, 0x12, 0x18, 0xb0, 0x80, 0x02, 0x00, 0x08, 0x00,
   0x84, 0x0a, 0x08, 0x00, 0x00, 0x00, 0x00, 0x10, 0x00, 0x40, 0x00, 0x00,
   0x12, 0x30, 0x80, 0x00, 0x11, 0x00, 0x08, 0x00, 0x04, 0x02, 0x7f, 0x00,
   0xe0, 0x0f, 0x00, 0x08, 0x00, 0x40, 0x00, 0x00, 0x12, 0x50, 0x40, 0x83,
   0x12, 0x00, 0x08, 0x00, 0x04, 0x00, 0x08, 0x00, 0x00, 0x00, 0x00, 0x08,
   0x00, 0x40, 0x00, 0x80, 0x7f, 0x50, 0xa0, 0x44, 0x14, 0x00, 0x08, 0x00,
   0x04, 0x00, 0x08, 0x00, 0x00, 0x00, 0x00, 0x04, 0x00, 0x40, 0x00, 0x00,
   0x09, 0x54, 0xa0, 0x44, 0x08, 0x00, 0x10, 0x00, 0x02, 0x00, 0x08, 0x00,
   0x00, 0x00, 0x00, 0x04, 0x00, 0x00, 0x00, 0x00, 0x09, 0x54, 0x90, 0x44,
   0x18, 0x00, 0x10, 0x00, 0x02, 0x00, 0x00, 0xc0, 0x00, 0x00, 0x06, 0x02,
   0x00, 0x40, 0x00, 0x00, 0x09, 0x38, 0x08, 0x83, 0x27, 0x00, 0x20, 0x00,
   0x01, 0x00, 0x00, 0xc0, 0x00, 0x00, 0x06, 0x02, 0x00, 0x00, 0x00, 0x00,
   0x00, 0x10, 0x00, 0x00, 0x00, 0x00, 0x40, 0x80, 0x00, 0x00, 0x00, 0x80,
   0x00, 0x00, 0x00, 0x00, 0x00, 0x00, 0x00, 0x00, 0x00, 0x10, 0x00, 0x00,
   0x00, 0x00, 0x80, 0x40, 0x00, 0x00, 0x00, 0x80, 0x00, 0x00, 0x00, 0x00,
   0x00, 0x00, 0x00, 0x00, 0x00, 0x00, 0x00, 0x00, 0x00, 0x00, 0x00, 0x00,
   0x00, 0x00, 0x00, 0x40, 0x00, 0x00, 0x00, 0x00, 0x00, 0x00, 0x00, 0x00,
   0x00, 0x00, 0x00, 0x00, 0x00, 0x00, 0x00, 0x00, 0x00, 0x00, 0x00, 0x00,
   0x00, 0x00, 0x00, 0x00, 0x00, 0x00, 0x00, 0x00, 0x00, 0x00, 0x00, 0x00,
   0x00, 0x00, 0x00, 0x00, 0x00, 0x00, 0x00, 0x00, 0x00, 0x00, 0x00, 0x00,
   0x38, 0xc0, 0x80, 0x07, 0x0f, 0x40, 0xf0, 0x03, 0x0f, 0x7e, 0xf0, 0xc0,
   0x01, 0x00, 0x00, 0x00, 0x00, 0x00, 0x00, 0x1c, 0x44, 0xa0, 0x40, 0x08,
   0x10, 0x60, 0x10, 0x80, 0x00, 0x40, 0x08, 0x21, 0x02, 0x00, 0x00, 0x00,
   0x00, 0x00, 0x00, 0x22, 0x82, 0x90, 0x00, 0x08, 0x10, 0x50, 0x10, 0x40,
   0x00, 0x20, 0x08, 0x11, 0x04, 0x00, 0x00, 0x00, 0x03, 0xc0, 0x00, 0x42,
   0xc2, 0x80, 0x00, 0x08, 0x10, 0x48, 0x10, 0x40, 0x00, 0x10, 0x08, 0x11,
   0x04, 0x06, 0x18, 0xc0, 0x00, 0x00, 0x03, 0x40, 0xa2, 0x80, 0x00, 0x04,
   0x08, 0x48, 0xf0, 0x40, 0x0f, 0x10, 0x90, 0x10, 0x04, 0x06, 0x18, 0x30,
   0xe0, 0x07, 0x0c, 0x20, 0x92, 0x80, 0x00, 0x02, 0x0e, 0x44, 0x00, 0xc1,
   0x10, 0x08, 0x60, 0x10, 0x06, 0x00, 0x00, 0x0c, 0x00, 0x00, 0x30, 0x10,
   0x8a, 0x80, 0x00, 0x01, 0x10, 0x42, 0x00, 0x42, 0x10, 0x08, 0x90, 0xe0,
   0x05, 0x00, 0x00, 0x30, 0xe0, 0x07, 0x0c, 0x08, 0x86, 0x80, 0x80, 0x00,
   0x20, 0xfe, 0x01, 0x42, 0x10, 0x04, 0x08, 0x01, 0x04, 0x00, 0x00, 0xc0,
   0x00, 0x00, 0x03, 0x08, 0x82, 0x80, 0x40, 0x00, 0x20, 0x40, 0x00, 0x42,
   0x10, 0x04, 0x08, 0x01, 0x02, 0x00, 0x00, 0x00, 0x03, 0xc0, 0x00, 0x08,
   0x44, 0x80, 0x40, 0x00, 0x10, 0x40, 0x00, 0x81, 0x08, 0x04, 0x08, 0x01,
   0x02, 0x06, 0x18, 0x00, 0x00, 0x00, 0x00, 0x00, 0x38, 0xf0, 0xc7, 0x0f,
   0x0f, 0x40, 0xf0, 0x00, 0x07, 0x04, 0xf0, 0xe0, 0x01, 0x06, 0x18, 0x00,
   0x00, 0x00, 0x00, 0x08, 0x00, 0x00, 0x00, 0x00, 0x00, 0x00, 0x00, 0x00,
   0x00, 0x00, 0x00, 0x00, 0x00, 0x00, 0x10, 0x00, 0x00, 0x00, 0x00, 0x08,
   0x00, 0x00, 0x00, 0x00, 0x00, 0x00, 0x00, 0x00, 0x00, 0x00, 0x00, 0x00,
   0x00, 0x00, 0x10, 0x00, 0x00, 0x00, 0x00, 0x00, 0x00, 0x00, 0x00, 0x00,
   0x00, 0x00, 0x00, 0x00, 0x00, 0x00, 0x00, 0x00, 0x00, 0x00, 0x08, 0x00,
   0x00, 0x00, 0x00, 0x00, 0x00, 0x00, 0x00, 0x00, 0x00, 0x00, 0x00, 0x00,
   0x00, 0x00, 0x00, 0x00, 0x00, 0x00, 0x00, 0x00, 0x00, 0x00, 0x00, 0x00,
   0x78, 0xc0, 0xc0, 0x07, 0x3c, 0x3c, 0xf0, 0x83, 0x1f, 0x78, 0x08, 0xe1,
   0x03, 0x0e, 0x42, 0x10, 0x20, 0x88, 0x10, 0x18, 0x84, 0xc0, 0x40, 0x08,
   0x02, 0x44, 0x10, 0x80, 0x00, 0x04, 0x08, 0x81, 0x00, 0x08, 0x22, 0x10,
   0x60, 0x8c, 0x11, 0x24, 0x02, 0xc1, 0x40, 0x08, 0x01, 0x84, 0x10, 0x80,
   0x00, 0x02, 0x08, 0x81, 0x00, 0x08, 0x12, 0x10, 0x60, 0x8c, 0x11, 0x42,
   0x72, 0x21, 0x41, 0x08, 0x01, 0x84, 0x10, 0x80, 0x00, 0x02, 0x08, 0x81,
   0x00, 0x08, 0x12, 0x10, 0x60, 0x8c, 0x12, 0x42, 0x4a, 0x21, 0x41, 0x08,
   0x01, 0x84, 0x10, 0x80, 0x00, 0x02, 0x08, 0x81, 0x00, 0x08, 0x0a, 0x10,
   0xa0, 0x8a, 0x12, 0x42, 0x4a, 0x21, 0xc1, 0x07, 0x01, 0x84, 0xf0, 0x83,
   0x1f, 0x02, 0xf8, 0x81, 0x00, 0x08, 0x06, 0x10, 0xa0, 0x8a, 0x12, 0x42,
   0x4a, 0x11, 0x42, 0x08, 0x01, 0x84, 0x10, 0x80, 0x00, 0x62, 0x08, 0x81,
   0x00, 0x08, 0x0a, 0x10, 0xa0, 0x8a, 0x14, 0x42, 0xf2, 0x10, 0x42, 0x08,
   0x01, 0x84, 0x10, 0x80, 0x00, 0x42, 0x08, 0x81, 0x00, 0x08, 0x12, 0x10,
   0x20, 0x89, 0x14, 0x42, 0x02, 0xf0, 0x43, 0x08, 0x01, 0x84, 0x10, 0x80,
   0x00, 0x42, 0x08, 0x81, 0x00, 0x08, 0x22, 0x10, 0x20, 0x89, 0x18, 0x42,
   0x04, 0x08, 0x44, 0x08, 0x02, 0x44, 0x10, 0x80, 0x00, 0x44, 0x08, 0x81,
   0x80, 0x08, 0x42, 0x10, 0x20, 0x88, 0x18, 0x24, 0x78, 0x08, 0xc4, 0x07,
   0x3c, 0x3c, 0xf0, 0x83, 0x00, 0x78, 0x08, 0xe1, 0x83, 0x07, 0x82, 0xf0,
   0x21, 0x88, 0x10, 0x18, 0x00, 0x00, 0x00, 0x00, 0x00, 0x00, 0x00, 0x00,
   0x00, 0x00, 0x00, 0x00, 0x00, 0x00, 0x00, 0x00, 0x00, 0x00, 0x00, 0x00,
   0x00, 0x00, 0x00, 0x00, 0x00, 0x00, 0x00, 0x00, 0x00, 0x00, 0x00, 0x00,
   0x00, 0x00, 0x00, 0x00, 0x00, 0x00, 0x00, 0x00, 0x00, 0x00, 0x00, 0x00,
   0x00, 0x00, 0x00, 0x00, 0x00, 0x00, 0x00, 0x00, 0x00, 0x00, 0x00, 0x00,
   0x00, 0x00, 0x00, 0x00, 0x00, 0x00, 0x00, 0x00, 0x00, 0x00, 0x00, 0x00,
   0x00, 0x00, 0x00, 0x00, 0x00, 0x00, 0x00, 0x00, 0x00, 0x00, 0x00, 0x00,
   0x00, 0x00, 0x00, 0x00, 0x00, 0x00, 0x00, 0x00, 0x00, 0x00, 0x00, 0x00,
   0x00, 0x00, 0x3c, 0x00, 0xc0, 0x03, 0x00, 0x00, 0x7c, 0xc0, 0xc0, 0x03,
   0x1e, 0xfe, 0x10, 0x82, 0x20, 0x49, 0x08, 0x21, 0x88, 0x1f, 0x04, 0x08,
   0x00, 0x02, 0x02, 0x00, 0x84, 0x20, 0x41, 0x04, 0x01, 0x10, 0x10, 0x82,
   0x20, 0x49, 0x90, 0x20, 0x08, 0x10, 0x04, 0x08, 0x00, 0x02, 0x02, 0x00,
   0x84, 0x10, 0x42, 0x04, 0x01, 0x10, 0x10, 0x82, 0x20, 0x49, 0x90, 0x40,
   0x04, 0x08, 0x04, 0x10, 0x00, 0x02, 0x05, 0x00, 0x84, 0x10, 0x42, 0x04,
   0x01, 0x10, 0x10, 0x02, 0x11, 0x55, 0x60, 0x80, 0x02, 0x08, 0x04, 0x20,
   0x00, 0x02, 0x05, 0x00, 0x84, 0x10, 0x42, 0x02, 0x02, 0x10, 0x10, 0x02,
   0x11, 0x55, 0x60, 0x80, 0x02, 0x04, 0x04, 0x20, 0x00, 0x82, 0x08, 0x00,
   0x44, 0x10, 0xc2, 0x01, 0x0c, 0x10, 0x10, 0x02, 0x11, 0x55, 0x60, 0x00,
   0x01, 0x04, 0x04, 0x40, 0x00, 0x82, 0x08, 0x00, 0x3c, 0x10, 0x42, 0x01,
   0x10, 0x10, 0x10, 0x02, 0x0a, 0x36, 0x60, 0x00, 0x01, 0x02, 0x04, 0x40,
   0x00, 0x42, 0x10, 0x00, 0x04, 0x10, 0x42, 0x02, 0x20, 0x10, 0x10, 0x02,
   0x0a, 0x22, 0x90, 0x00, 0x01, 0x01, 0x04, 0x80, 0x00, 0x02, 0x00, 0x00,
   0x04, 0x10, 0x42, 0x02, 0x20, 0x10, 0x10, 0x02, 0x0a, 0x22, 0x90, 0x00,
   0x01, 0x01, 0x04, 0x80, 0x00, 0x02, 0x00, 0x00, 0x04, 0x20, 0x41, 0x04,
   0x20, 0x10, 0x10, 0x02, 0x04, 0x22, 0x08, 0x01, 0x81, 0x00, 0x04, 0x00,
   0x01, 0x02, 0x00, 0x00, 0x04, 0xc0, 0x40, 0x04, 0x1f, 0x10, 0xe0, 0x01,
   0x04, 0x22, 0x08, 0x01, 0x81, 0x1f, 0x04, 0x00, 0x02, 0x02, 0x00, 0x00,
   0x00, 0x80, 0x00, 0x00, 0x00, 0x00, 0x00, 0x00, 0x00, 0x00, 0x00, 0x00,
   0x00, 0x00, 0x04, 0x00, 0x00, 0x02, 0x00, 0x7f, 0x00, 0x80, 0x00, 0x00,
   0x00, 0x00, 0x00, 0x00, 0x00, 0x00, 0x00, 0x00, 0x00, 0x00, 0x3c, 0x00,
   0xc0, 0x03, 0x00, 0x00, 0x00, 0x00, 0x07, 0x00, 0x00, 0x00, 0x00, 0x00,
   0x00, 0x00, 0x00, 0x00, 0x00, 0x00, 0x00, 0x00, 0x00, 0x00, 0x00, 0x00,
   0x00, 0x00, 0x00, 0x00, 0x00, 0x00, 0x00, 0x00, 0x00, 0x00, 0x00, 0x00,
   0x00, 0x00, 0x00, 0x00, 0x00, 0x00, 0x00, 0x00, 0x00, 0x00, 0x00, 0x00,
   0x00, 0x00, 0x00, 0x00, 0x00, 0x00, 0x00, 0x00, 0x00, 0x00, 0x00, 0x00,
   0x00, 0x00, 0x00, 0x00, 0x08, 0x00, 0x40, 0x00, 0x00, 0x80, 0x00, 0x00,
   0x3c, 0x00, 0x08, 0x80, 0x00, 0x08, 0x02, 0x38, 0x00, 0x00, 0x00, 0x00,
   0x10, 0x00, 0x40, 0x00, 0x00, 0x80, 0x00, 0x00, 0x02, 0x00, 0x08, 0x00,
   0x00, 0x00, 0x02, 0x20, 0x00, 0x00, 0x00, 0x00, 0x00, 0x00, 0x40, 0x00,
   0x00, 0x80, 0x00, 0x00, 0x02, 0x00, 0x08, 0x00, 0x00, 0x00, 0x02, 0x20,
   0x00, 0x00, 0x00, 0x00, 0x00, 0xc0, 0x43, 0x07, 0x3c, 0xf0, 0xc0, 0x01,
   0x02, 0x78, 0xe8, 0xe0, 0x00, 0x0f, 0x22, 0x20, 0xd0, 0x86, 0x0e, 0x18,
   0x00, 0x20, 0xc2, 0x08, 0x02, 0x88, 0x20, 0x82, 0x1f, 0x44, 0x18, 0x81,
   0x00, 0x08, 0x12, 0x20, 0xb0, 0x85, 0x11, 0x24, 0x00, 0x10, 0x42, 0x08,
   0x01, 0x84, 0x10, 0x02, 0x02, 0x42, 0x08, 0x81, 0x00, 0x08, 0x0a, 0x20,
   0x90, 0x84, 0x10, 0x42, 0x00, 0x10, 0x42, 0x08, 0x01, 0x84, 0xf0, 0x03,
   0x02, 0x42, 0x08, 0x81, 0x00, 0x08, 0x06, 0x20, 0x90, 0x84, 0x10, 0x42,
   0x00, 0x10, 0x42, 0x08, 0x01, 0x84, 0x10, 0x00, 0x02, 0x42, 0x08, 0x81,
   0x00, 0x08, 0x06, 0x20, 0x90, 0x84, 0x10, 0x42, 0x00, 0x10, 0x42, 0x08,
   0x01, 0x84, 0x10, 0x00, 0x02, 0x42, 0x08, 0x81, 0x00, 0x08, 0x0a, 0x20,
   0x90, 0x84, 0x10, 0x42, 0x00, 0x10, 0x43, 0x04, 0x02, 0xc4, 0x20, 0x00,
   0x02, 0x62, 0x08, 0x81, 0x00, 0x08, 0x12, 0x20, 0x90, 0x84, 0x10, 0x24,
   0x00, 0xe0, 0xc2, 0x03, 0x3c, 0xb8, 0xc0, 0x03, 0x02, 0x5c, 0x08, 0x81,
   0x03, 0x08, 0x22, 0xe0, 0x90, 0x84, 0x10, 0x18, 0x00, 0x00, 0x00, 0x00,
   0x00, 0x00, 0x00, 0x00, 0x00, 0x40, 0x00, 0x00, 0x00, 0x08, 0x00, 0x00,
   0x00, 0x00, 0x00, 0x00, 0x00, 0x00, 0x00, 0x00, 0x00, 0x00, 0x00, 0x00,
   0x00, 0x22, 0x00, 0x00, 0x00, 0x04, 0x00, 0x00, 0x00, 0x00, 0x00, 0x00,
   0x00, 0x00, 0x00, 0x00, 0x00, 0x00, 0x00, 0x00, 0x00, 0x1c, 0x00, 0x00,
   0x80, 0x03, 0x00, 0x00, 0x00, 0x00, 0x00, 0x00, 0x00, 0x00, 0x00, 0x00,
   0x00, 0x00, 0x00, 0x00, 0x00, 0x00, 0x00, 0x00, 0x00, 0x00, 0x00, 0x00,
   0x00, 0x00, 0x00, 0x00, 0x00, 0x00, 0x00, 0x00, 0x00, 0x00, 0x00, 0x00,
   0x00, 0x00, 0x00, 0x00, 0x00, 0x00, 0xe0, 0x00, 0xe0, 0x00, 0x00, 0x00,
   0x00, 0x00, 0x00, 0x00, 0x00, 0x00, 0x00, 0x00, 0x00, 0x00, 0x00, 0x00,
   0x00, 0x00, 0x10, 0x20, 0x00, 0x01, 0x00, 0x00, 0x00, 0x00, 0x00, 0x00,
   0x00, 0x10, 0x00, 0x00, 0x00, 0x00, 0x00, 0x00, 0x00, 0x00, 0x10, 0x20,
   0x00, 0x01, 0x00, 0x00, 0x00, 0x00, 0x00, 0x00, 0x00, 0x10, 0x00, 0x00,
   0x00, 0x00, 0x00, 0x00, 0x00, 0x00, 0x10, 0x20, 0x00, 0x01, 0x00, 0x00,
   0x74, 0xc0, 0x83, 0x0e, 0x1e, 0x10, 0x10, 0x82, 0x20, 0x49, 0x88, 0x20,
   0x84, 0x1f, 0x10, 0x20, 0x00, 0x01, 0x00, 0x00, 0x8c, 0x20, 0x82, 0x09,
   0x21, 0xfc, 0x10, 0x82, 0x20, 0x49, 0x50, 0x20, 0x04, 0x10, 0x10, 0x20,
   0x00, 0x01, 0x00, 0x00, 0x84, 0x10, 0x82, 0x08, 0x01, 0x10, 0x10, 0x02,
   0x11, 0x55, 0x50, 0x40, 0x04, 0x08, 0x0c, 0x20, 0x00, 0x06, 0x13, 0x00,
   0x84, 0x10, 0x82, 0x00, 0x06, 0x10, 0x10, 0x02, 0x11, 0x55, 0x20, 0x40,
   0x02, 0x04, 0x10, 0x20, 0x00, 0x81, 0x16, 0x00, 0x84, 0x10, 0x82, 0x00,
   0x18, 0x10, 0x10, 0x02, 0x11, 0x55, 0x20, 0x80, 0x02, 0x02, 0x10, 0x20,
   0x00, 0x81, 0x0c, 0x00, 0x84, 0x10, 0x82, 0x00, 0x20, 0x10, 0x10, 0x02,
   0x0a, 0x55, 0x50, 0x80, 0x01, 0x01, 0x10, 0x20, 0x00, 0x01, 0x00, 0x00,
   0x44, 0x10, 0x83, 0x00, 0x21, 0x10, 0x10, 0x03, 0x0a, 0x22, 0x88, 0x00,
   0x81, 0x00, 0x10, 0x20, 0x00, 0x01, 0x00, 0x00, 0x3c, 0xe0, 0x82, 0x00,
   0x1e, 0xe0, 0xe0, 0x02, 0x04, 0x22, 0x88, 0x00, 0x81, 0x1f, 0x10, 0x20,
   0x00, 0x01, 0x00, 0x00, 0x04, 0x00, 0x02, 0x00, 0x00, 0x00, 0x00, 0x00,
   0x00, 0x00, 0x00, 0x80, 0x00, 0x00, 0x10, 0x00, 0x00, 0x01, 0x00, 0x00,
   0x04, 0x00, 0x02, 0x00, 0x00, 0x00, 0x00, 0x00, 0x00, 0x00, 0x00, 0x80,
   0x00, 0x00, 0xe0, 0x00, 0xe0, 0x00, 0x00, 0x00, 0x04, 0x00, 0x02, 0x00,
   0x00, 0x00, 0x00, 0x00, 0x00, 0x00, 0x00, 0x70, 0x00, 0x00, 0x00, 0x00,
   0x00, 0x00, 0x00, 0x00, 0x00, 0x00, 0x00, 0x00, 0x00, 0x00, 0x00, 0x00,
   0x00, 0x00, 0x00, 0x00, 0x00, 0x00, 0x00, 0x00, 0x00, 0x00, 0x00, 0x00,
   0x00, 0x00, 0x00, 0x00, 0x00, 0x00, 0x00, 0x00, 0x00, 0x00, 0x00, 0x00,
   0x00, 0x00, 0x00, 0x00, 0x00, 0x00, 0x00, 0x00, 0x00, 0x00, 0x00, 0x00,
   0x00, 0x00, 0x00, 0x00, 0x00, 0x00, 0x00, 0x00, 0x00, 0x00, 0x00, 0x00,
   0x00, 0x00, 0x00, 0x00, 0x00, 0x00, 0x00, 0x00, 0x00, 0x00, 0x00, 0x00,
   0x00, 0x00, 0x00, 0x00, 0x00, 0x00, 0x00, 0x00, 0x00, 0x00, 0x00, 0x00,
   0x00, 0x00, 0x00, 0x00, 0x00, 0x00, 0x00, 0x00, 0x00, 0x00, 0x00, 0x00,
   0x00, 0x00, 0x00, 0x00, 0x00, 0x00, 0x00, 0x00, 0x00, 0x00, 0x00, 0x00,
   0x00, 0x00, 0x00, 0x00, 0x00, 0x00, 0x00, 0x00, 0x00, 0x00, 0x00, 0x00,
   0x00, 0x00, 0x00, 0x00, 0x00, 0x00, 0x00, 0x00, 0x00, 0x00, 0x00, 0x00,
   0x00, 0x00, 0x00, 0x00, 0x00, 0x00, 0x00, 0x00, 0x00, 0x00, 0x00, 0x00,
   0x00, 0x00, 0x00, 0x00, 0x00, 0x00, 0x00, 0x00, 0x00, 0x00, 0x00, 0x00,
   0x00, 0x00, 0x00, 0x00, 0x00, 0x00, 0x00, 0x00, 0x00, 0x00, 0x00, 0x00,
   0x00, 0x00, 0x00, 0x00, 0x00, 0x00, 0x00, 0x00, 0x00, 0x00, 0x00, 0x00,
   0x00, 0x00, 0x00, 0x00, 0x00, 0x00, 0x00, 0x00, 0x00, 0x00, 0x00, 0x00,
   0x00, 0x00, 0x00, 0x00, 0x00, 0x00, 0x00, 0x00, 0x00, 0x00, 0x00, 0x00,
   0x00, 0x00, 0x00, 0x00, 0x00, 0x00, 0x00, 0x00, 0x00, 0x00, 0x00, 0x00,
   0x00, 0x00, 0x00, 0x00, 0x00, 0x00, 0x00, 0x00, 0x00, 0x00, 0x00, 0x00,
   0x00, 0x00, 0x00, 0x00, 0x00, 0x00, 0x00, 0x00, 0x00, 0x00, 0x00, 0x00,
   0x00, 0x00, 0x00, 0x00, 0x00, 0x00, 0x00, 0x00, 0x00, 0x00, 0x00, 0x00,
   0x00, 0x00, 0x00, 0x00, 0x00, 0x00, 0x00, 0x00, 0x00, 0x00, 0x00, 0x00,
   0x00, 0x00, 0x00, 0x00, 0x00, 0x00, 0x00, 0x00, 0x00, 0x00, 0x00, 0x00,
   0x00, 0x00, 0x00, 0x00, 0x00, 0x00, 0x00, 0x00, 0x00, 0x00, 0x00, 0x00,
   0x00, 0x00, 0x00, 0x00, 0x00, 0x00, 0x00, 0x00, 0x00, 0x00, 0x00, 0x00,
   0x00, 0x00, 0x00, 0x00, 0x00, 0x00, 0x00, 0x00, 0x00, 0x00, 0x00, 0x00,
   0x00, 0x00, 0x00, 0x00, 0x00, 0x00, 0x00, 0x00, 0x00, 0x00, 0x00, 0x00,
   0x00, 0x00, 0x00, 0x00, 0x00, 0x00, 0x00, 0x00, 0x00, 0x00, 0x00, 0x00,
   0x00, 0x00, 0x00, 0x00, 0x00, 0x00, 0x00, 0x00, 0x00, 0x00, 0x00, 0x00,
   0x00, 0x00, 0x00, 0x00, 0x00, 0x00, 0x00, 0x00, 0x00, 0x00, 0x00, 0x00,
   0x00, 0x00, 0x00, 0x00, 0x00, 0x00, 0x00, 0x00, 0x00, 0x00, 0x00, 0x00,
   0x00, 0x00, 0x00, 0x00, 0x00, 0x00, 0x00, 0x00, 0x00, 0x00, 0x00, 0x00,
   0x00, 0x00, 0x00, 0x00, 0x00, 0x00, 0x00, 0x00, 0x00, 0x00, 0x00, 0x00,
   0x00, 0x00, 0x00, 0x00, 0x00, 0x00, 0x00, 0x00, 0x00, 0x00, 0x00, 0x00,
   0x00, 0x00, 0x00, 0x00, 0x00, 0x00, 0x00, 0x00, 0x00, 0x00, 0x00, 0x00,
   0x00, 0x00, 0x00, 0x00, 0x00, 0x00, 0x00, 0x00, 0x00, 0x00, 0x00, 0x00,
   0x00, 0x00, 0x00, 0x00, 0x00, 0x00, 0x00, 0x00, 0x00, 0x00, 0x00, 0x00,
   0x00, 0x00, 0x00, 0x00, 0x00, 0x00, 0x00, 0x00, 0x00, 0x00, 0x00, 0x00,
   0x00, 0x00, 0x00, 0x00, 0x00, 0x00, 0x00, 0x00, 0x00, 0x00, 0x00, 0x00,
   0x00, 0x00, 0x00, 0x00, 0x00, 0x00, 0x00, 0x00, 0x00, 0x00, 0x00, 0x00,
   0x00, 0x00, 0x00, 0x00, 0x00, 0x00, 0x00, 0x00, 0x00, 0x00, 0x00, 0x00,
   0x00, 0x00, 0x00, 0x00, 0x00, 0x00, 0x00, 0x00, 0x00, 0x00, 0x00, 0x00,
   0x00, 0x00, 0x00, 0x00, 0x00, 0x00, 0x00, 0x00, 0x00, 0x00, 0x00, 0x00,
   0x00, 0x00, 0x00, 0x00, 0x00, 0x00, 0x00, 0x00, 0x00, 0x00, 0x00, 0x00,
   0x00, 0x00, 0x00, 0x00, 0x00, 0x00, 0x00, 0x00, 0x00, 0x00, 0x00, 0x00,
   0x00, 0x00, 0x00, 0x00, 0x00, 0x00, 0x00, 0x00, 0x00, 0x00, 0x00, 0x00,
   0x00, 0x00, 0x00, 0x00, 0x00, 0x00, 0x00, 0x00, 0x00, 0x00, 0x00, 0x00,
   0x00, 0x00, 0x00, 0x00, 0x00, 0x00, 0x00, 0x00, 0x00, 0x00, 0x00, 0x00,
   0x00, 0x00, 0x00, 0x00, 0x00, 0x00, 0x00, 0x00, 0x00, 0x00, 0x00, 0x00,
   0x00, 0x00, 0x00, 0x00, 0x00, 0x00, 0x00, 0x00, 0x00, 0x00, 0x00, 0x00,
   0x00, 0x00, 0x00, 0x00, 0x00, 0x00, 0x00, 0x00, 0x00, 0x00, 0x00, 0x00,
   0x00, 0x00, 0x00, 0x00, 0x00, 0x00, 0x00, 0x00, 0x00, 0x00, 0x00, 0x00,
   0x00, 0x00, 0x00, 0x00, 0x00, 0x00, 0x00, 0x00, 0x00, 0x00, 0x00, 0x00,
   0x00, 0x00, 0x00, 0x00, 0x00, 0x00, 0x00, 0x00, 0x00, 0x00, 0x00, 0x01,
   0x3c, 0x00, 0x10, 0x04, 0x00, 0x78, 0x00, 0xc0, 0x03, 0x0f, 0x00, 0x00,
   0x00, 0x00, 0x0f, 0x00, 0x00, 0x00, 0x00, 0x01, 0x02, 0x00, 0x10, 0x04,
   0x00, 0x04, 0x90, 0x20, 0x84, 0x08, 0x00, 0x00, 0x00, 0x80, 0x10, 0x00,
   0x00, 0x00, 0x80, 0x07, 0x02, 0x20, 0x20, 0x02, 0x00, 0x02, 0x00, 0xa0,
   0x87, 0x08, 0x00, 0x00, 0x00, 0x80, 0x17, 0x00, 0x00, 0x00, 0x40, 0x05,
   0x02, 0x10, 0x40, 0x01, 0x06, 0x02, 0x00, 0x50, 0x88, 0x0c, 0x00, 0x38,
   0x00, 0x40, 0x25, 0x00, 0x00, 0x40, 0x20, 0x01, 0x02, 0x6c, 0x40, 0x01,
   0x06, 0x02, 0x00, 0x50, 0x08, 0x0b, 0x6c, 0x20, 0x00, 0x40, 0x25, 0x00,
   0x00, 0x00, 0x20, 0x01, 0x1f, 0xfe, 0x80, 0x00, 0x00, 0x02, 0x00, 0x50,
   0x08, 0x00, 0x24, 0x20, 0xe0, 0x4f, 0x23, 0x00, 0x00, 0x40, 0x20, 0x01,
   0x02, 0x7e, 0xe0, 0x03, 0x00, 0x02, 0x00, 0x50, 0x88, 0x0f, 0x36, 0x20,
   0x00, 0x40, 0x23, 0x00, 0x00, 0x40, 0x20, 0x01, 0x02, 0x7e, 0x80, 0x00,
   0x00, 0x02, 0x00, 0x50, 0x08, 0x00, 0x12, 0x20, 0x00, 0x40, 0x25, 0x00,
   0x00, 0x40, 0x40, 0x01, 0x02, 0x7e, 0xe0, 0x03, 0x00, 0x02, 0x00, 0xa0,
   0x07, 0x00, 0x36, 0x20, 0x00, 0x80, 0x15, 0x00, 0x00, 0x40, 0x80, 0x07,
   0x02, 0xfe, 0x80, 0x00, 0x06, 0x04, 0x00, 0x20, 0x04, 0x00, 0x24, 0x20,
   0x00, 0x80, 0x18, 0x00, 0x00, 0x40, 0x00, 0x01, 0x3f, 0x7c, 0x80, 0x00,
   0x06, 0x78, 0x00, 0xc0, 0x03, 0x00, 0x6c, 0xe0, 0x00, 0x00, 0x0f, 0x00,
   0x00, 0x40, 0x00, 0x01, 0x00, 0x00, 0x00, 0x00, 0x00, 0x10, 0x00, 0x00,
   0x00, 0x00, 0x00, 0x00, 0x00, 0x00, 0x00, 0x00, 0x00, 0x40, 0x00, 0x00,
   0x00, 0x00, 0x00, 0x00, 0x00, 0x20, 0x00, 0x00, 0x00, 0x00, 0x00, 0x00,
   0x00, 0x00, 0x00, 0x00, 0x00, 0x40, 0x00, 0x00, 0x00, 0x00, 0x00, 0x00,
   0x00, 0x10, 0x00, 0x00, 0x00, 0x00, 0x00, 0x00, 0x00, 0x00, 0x00, 0x00,
   0x00, 0x40, 0x00, 0x00, 0x00, 0x00, 0x00, 0x00, 0x00, 0x00, 0x00, 0x00,
   0x00, 0x00, 0x00, 0x00, 0x00, 0x00, 0x00, 0x00, 0x00, 0x00, 0x00, 0x00,
   0x00, 0x00, 0x00, 0x00, 0x00, 0x00, 0x00, 0x00, 0x00, 0x00, 0x00, 0x00,
   0x00, 0x00, 0x00, 0x00, 0x00, 0x00, 0x00, 0x00, 0x00, 0x00, 0x00, 0x00,
   0x00, 0x00, 0x00, 0x00, 0x00, 0x00, 0x00, 0x0c, 0x30, 0xc0, 0x00, 0x00,
   0x18, 0x00, 0x00, 0x00, 0x00, 0x10, 0x00, 0x00, 0x00, 0x00, 0x00, 0xe0,
   0x81, 0x03, 0x00, 0x12, 0x48, 0x20, 0x01, 0x00, 0x24, 0x00, 0x00, 0x00,
   0x00, 0x10, 0x00, 0xc0, 0x0f, 0x00, 0x00, 0x10, 0x41, 0x04, 0x00, 0x92,
   0x48, 0x22, 0x09, 0x00, 0x24, 0x20, 0x80, 0x01, 0x18, 0x10, 0x00, 0xe0,
   0x05, 0x00, 0x00, 0x10, 0x41, 0x04, 0x00, 0x52, 0x48, 0x21, 0x05, 0x04,
   0x18, 0x20, 0x80, 0x03, 0x38, 0x00, 0x08, 0xe1, 0x05, 0x1e, 0x00, 0x90,
   0x41, 0x04, 0x00, 0x2c, 0xb0, 0xc0, 0x02, 0x04, 0x00, 0x20, 0x00, 0x03,
   0x30, 0x00, 0x08, 0xe1, 0x05, 0x3f, 0x00, 0x60, 0x81, 0x03, 0x1b, 0x10,
   0x40, 0x00, 0x01, 0x00, 0x00, 0xfc, 0x81, 0x01, 0x38, 0x00, 0x08, 0xc1,
   0x05, 0x3f, 0x00, 0x00, 0x00, 0x00, 0x12, 0x08, 0x20, 0x80, 0x00, 0x04,
   0x00, 0x20, 0x80, 0x00, 0x20, 0x00, 0x08, 0x81, 0x05, 0x3f, 0x00, 0xf0,
   0xc1, 0x07, 0x36, 0xdc, 0x70, 0xc3, 0x0d, 0x04, 0x00, 0x20, 0xc0, 0x03,
   0x3c, 0x00, 0x08, 0x01, 0x05, 0x3f, 0x00, 0x00, 0x00, 0x00, 0x24, 0x26,
   0x99, 0x64, 0x12, 0x04, 0x00, 0x20, 0x00, 0x00, 0x00, 0x00, 0x08, 0x01,
   0x05, 0x1e, 0x00, 0x00, 0x00, 0x00, 0x36, 0x24, 0x91, 0x44, 0x12, 0x02,
   0x00, 0x00, 0x00, 0x00, 0x00, 0x00, 0x98, 0x01, 0x05, 0x00, 0x00, 0x00,
   0x00, 0x00, 0x12, 0x24, 0x91, 0x44, 0x12, 0x01, 0x00, 0xfc, 0x01, 0x00,
   0x00, 0x00, 0x68, 0x01, 0x05, 0x00, 0x00, 0x00, 0x00, 0x00, 0x1b, 0xd8,
   0x60, 0x83, 0x8d, 0x00, 0x00, 0x00, 0x00, 0x00, 0x00, 0x00, 0x08, 0x00,
   0x05, 0x00, 0x00, 0x00, 0x00, 0x00, 0x00, 0x00, 0x00, 0x00, 0x80, 0x10,
   0x00, 0x00, 0x00, 0x00, 0x00, 0x00, 0x08, 0x00, 0x05, 0x00, 0x00, 0x00,
   0x00, 0x00, 0x00, 0x00, 0x00, 0x00, 0x00, 0x11, 0x00, 0x00, 0x00, 0x00,
   0x00, 0x00, 0x00, 0x00, 0x05, 0x00, 0x00, 0x00, 0x00, 0x00, 0x00, 0x00,
   0x00, 0x00, 0x00, 0x0e, 0x00, 0x00, 0x00, 0x00, 0x00, 0x00, 0x00, 0x00,
   0x00, 0x00, 0x00, 0x00, 0x00, 0x00, 0x00, 0x00, 0x00, 0x00, 0x00, 0x00,
   0x10, 0xc0, 0x02, 0x00, 0x10, 0x00, 0x00, 0x00, 0x00, 0x00, 0x10, 0x00,
   0x00, 0x04, 0x00, 0x20, 0x20, 0x00, 0x00, 0x00, 0x20, 0x40, 0x03, 0x09,
   0x28, 0x00, 0x00, 0x00, 0x00, 0x00, 0x20, 0x00, 0x00, 0x0a, 0x24, 0x50,
   0x40, 0x00, 0x00, 0x12, 0x00, 0x00, 0x00, 0x00, 0x00, 0x00, 0x00, 0x00,
   0x00, 0x00, 0x00, 0x00, 0x00, 0x00, 0x00, 0x00, 0x00, 0x00, 0x00, 0x00,
   0x60, 0x80, 0x01, 0x06, 0x18, 0x80, 0x03, 0x03, 0x38, 0x78, 0xf8, 0xe1,
   0x87, 0x1f, 0x7e, 0x7c, 0xf0, 0xc1, 0x07, 0x1f, 0x60, 0x80, 0x01, 0x06,
   0x18, 0x80, 0x00, 0x03, 0x08, 0x04, 0x08, 0x20, 0x80, 0x00, 0x02, 0x10,
   0x40, 0x00, 0x01, 0x04, 0x60, 0x80, 0x01, 0x06, 0x18, 0xc0, 0x00, 0x03,
   0x0c, 0x02, 0x08, 0x20, 0x80, 0x00, 0x02, 0x10, 0x40, 0x00, 0x01, 0x04,
   0x90, 0x40, 0x02, 0x09, 0x24, 0xc0, 0x80, 0x04, 0x0c, 0x02, 0x08, 0x20,
   0x80, 0x00, 0x02, 0x10, 0x40, 0x00, 0x01, 0x04, 0x90, 0x40, 0x02, 0x09,
   0x24, 0xa0, 0x80, 0x04, 0x0a, 0x02, 0x08, 0x20, 0x80, 0x00, 0x02, 0x10,
   0x40, 0x00, 0x01, 0x04, 0x90, 0x40, 0x02, 0x09, 0x24, 0xa0, 0x83, 0x04,
   0x3a, 0x02, 0xf8, 0xe1, 0x87, 0x1f, 0x7e, 0x10, 0x40, 0x00, 0x01, 0x04,
   0x08, 0x21, 0x84, 0x10, 0x42, 0x90, 0x40, 0x08, 0x09, 0x02, 0x08, 0x20,
   0x80, 0x00, 0x02, 0x10, 0x40, 0x00, 0x01, 0x04, 0x08, 0x21, 0x84, 0x10,
   0x42, 0xf0, 0x40, 0x08, 0x0f, 0x02, 0x08, 0x20, 0x80, 0x00, 0x02, 0x10,
   0x40, 0x00, 0x01, 0x04, 0xf8, 0xe1, 0x87, 0x1f, 0x7e, 0x90, 0xc0, 0x0f,
   0x09, 0x02, 0x08, 0x20, 0x80, 0x00, 0x02, 0x10, 0x40, 0x00, 0x01, 0x04,
   0x04, 0x12, 0x48, 0x20, 0x81, 0x88, 0x20, 0x90, 0x08, 0x04, 0x08, 0x20,
   0x80, 0x00, 0x02, 0x10, 0x40, 0x00, 0x01, 0x04, 0x04, 0x12, 0x48, 0x20,
   0x81, 0x88, 0x23, 0x90, 0x38, 0x78, 0xf8, 0xe1, 0x87, 0x1f, 0x7e, 0x7c,
   0xf0, 0xc1, 0x07, 0x1f, 0x00, 0x00, 0x00, 0x00, 0x00, 0x00, 0x00, 0x00,
   0x00, 0x10, 0x00, 0x00, 0x00, 0x00, 0x00, 0x00, 0x00, 0x00, 0x00, 0x00,
   0x00, 0x00, 0x00, 0x00, 0x00, 0x00, 0x00, 0x00, 0x00, 0x20, 0x00, 0x00,
   0x00, 0x00, 0x00, 0x00, 0x00, 0x00, 0x00, 0x00, 0x00, 0xb0, 0x40, 0x00,
   0x04, 0x00, 0xb0, 0x00, 0x00, 0x10, 0x00, 0x00, 0x00, 0x00, 0x00, 0x00,
   0x00, 0x00, 0x00, 0x00, 0x00, 0xd0, 0x80, 0x00, 0x02, 0x00, 0xd0, 0x80,
   0x04, 0x00, 0x00, 0x00, 0x00, 0x00, 0x00, 0x00, 0x00, 0x00, 0x00, 0x00,
   0x00, 0x00, 0x00, 0x00, 0x00, 0x00, 0x00, 0x00, 0x00, 0x00, 0x00, 0x00,
   0x00, 0x00, 0x00, 0x00, 0x00, 0x00, 0x00, 0x00, 0x1e, 0x08, 0x81, 0x01,
   0x06, 0x18, 0x60, 0x00, 0x03, 0x00, 0xb0, 0xf0, 0x40, 0x08, 0x21, 0x84,
   0x10, 0x84, 0x03, 0x0e, 0x22, 0x18, 0x41, 0x02, 0x09, 0x24, 0x90, 0x80,
   0x04, 0x00, 0x48, 0x10, 0x41, 0x08, 0x21, 0x84, 0x10, 0x44, 0x04, 0x13,
   0x42, 0x18, 0x21, 0x84, 0x10, 0x42, 0x08, 0x41, 0x08, 0x00, 0xc4, 0x10,
   0x42, 0x08, 0x21, 0x84, 0x20, 0x42, 0x08, 0x11, 0x42, 0x28, 0x21, 0x84,
   0x10, 0x42, 0x08, 0x41, 0x08, 0x11, 0xa4, 0x10, 0x42, 0x08, 0x21, 0x84,
   0x40, 0x01, 0x08, 0x09, 0x42, 0x28, 0x21, 0x84, 0x10, 0x42, 0x08, 0x41,
   0x08, 0x0a, 0xa4, 0x10, 0x42, 0x08, 0x21, 0x84, 0x40, 0x01, 0x04, 0x05,
   0x42, 0x28, 0x21, 0x84, 0x10, 0x42, 0x08, 0x41, 0x08, 0x0a, 0x94, 0x10,
   0x42, 0x08, 0x21, 0x84, 0x80, 0x00, 0x02, 0x05, 0x42, 0x48, 0x21, 0x84,
   0x10, 0x42, 0x08, 0x41, 0x08, 0x04, 0x94, 0x10, 0x42, 0x08, 0x21, 0x84,
   0xe0, 0x03, 0x01, 0x19, 0x42, 0x48, 0x21, 0x84, 0x10, 0x42, 0x08, 0x41,
   0x08, 0x04, 0x94, 0x10, 0x42, 0x08, 0x21, 0x84, 0x80, 0x00, 0x01, 0x31,
   0x42, 0x88, 0x21, 0x84, 0x10, 0x42, 0x08, 0x41, 0x08, 0x0a, 0x8c, 0x10,
   0x42, 0x08, 0x21, 0x84, 0xe0, 0x03, 0x01, 0x21, 0x22, 0x88, 0x41, 0x02,
   0x09, 0x24, 0x90, 0x80, 0x04, 0x11, 0x48, 0x10, 0x41, 0x08, 0x21, 0x84,
   0x80, 0x00, 0x00, 0x21, 0x1e, 0x08, 0x81, 0x01, 0x06, 0x18, 0x60, 0x00,
   0x03, 0x11, 0x34, 0xf0, 0x80, 0x07, 0x1e, 0x78, 0x80, 0x00, 0x01, 0x1d,
   0x00, 0x00, 0x00, 0x00, 0x00, 0x00, 0x00, 0x00, 0x00, 0x00, 0x00, 0x00,
   0x00, 0x00, 0x00, 0x00, 0x00, 0x00, 0x01, 0x00, 0x00, 0x00, 0x00, 0x00,
   0x00, 0x00, 0x00, 0x00, 0x00, 0x00, 0x00, 0x00, 0x00, 0x00, 0x00, 0x00,
   0x00, 0x00, 0x00, 0x00, 0x00, 0x00, 0x00, 0x00, 0x00, 0x00, 0x00, 0x00,
   0x00, 0x00, 0x00, 0x00, 0x00, 0x00, 0x00, 0x00, 0x00, 0x00, 0x00, 0x00,
   0x00, 0x00, 0x00, 0x00, 0x00, 0x00, 0x00, 0x00, 0x00, 0x00, 0x00, 0x00,
   0x00, 0x00, 0x00, 0x00, 0x00, 0x00, 0x00, 0x00, 0x00, 0x00, 0x00, 0x00,
   0x00, 0x00, 0x00, 0x00, 0x00, 0x00, 0x00, 0x00, 0x00, 0x00, 0x00, 0x10,
   0x40, 0x00, 0x01, 0x00, 0x00, 0x00, 0x00, 0x00, 0x00, 0x00, 0x00, 0x00,
   0x00, 0x00, 0x00, 0x00, 0x00, 0x00, 0x00, 0x00, 0x00, 0x00, 0x00, 0x00,
   0x00, 0x00, 0x00, 0x00, 0x00, 0x00, 0x00, 0x00, 0x00, 0x00, 0x00, 0x00,
   0x00, 0x00, 0x00, 0x00, 0x00, 0x00, 0x00, 0x00, 0x78, 0xe0, 0x81, 0x07,
   0x1e, 0x78, 0xe0, 0xc1, 0x0d, 0x1c, 0x70, 0xc0, 0x01, 0x07, 0x1c, 0x1c,
   0x70, 0xc0, 0x01, 0x21, 0x44, 0x10, 0x41, 0x04, 0x11, 0x44, 0x10, 0x21,
   0x12, 0x22, 0x88, 0x20, 0x82, 0x08, 0x22, 0x10, 0x40, 0x00, 0x01, 0x21,
   0x42, 0x08, 0x21, 0x84, 0x10, 0x42, 0x08, 0x21, 0x12, 0x01, 0x84, 0x10,
   0x42, 0x08, 0x21, 0x10, 0x40, 0x00, 0x01, 0x22, 0x42, 0x08, 0x21, 0x84,
   0x10, 0x42, 0x08, 0x21, 0x1e, 0x01, 0xfc, 0xf0, 0xc3, 0x0f, 0x3f, 0x10,
   0x40, 0x00, 0x01, 0x12, 0x42, 0x08, 0x21, 0x84, 0x10, 0x42, 0x08, 0x21,
   0x02, 0x01, 0x04, 0x10, 0x40, 0x00, 0x01, 0x10, 0x40, 0x00, 0x01, 0x14,
   0x42, 0x08, 0x21, 0x84, 0x10, 0x42, 0x08, 0x21, 0x02, 0x01, 0x04, 0x10,
   0x40, 0x00, 0x01, 0x10, 0x40, 0x00, 0x01, 0x0c, 0x62, 0x88, 0x21, 0x86,
   0x18, 0x62, 0x88, 0x21, 0x02, 0x22, 0x08, 0x20, 0x80, 0x00, 0x02, 0x10,
   0x40, 0x00, 0x01, 0x08, 0x5c, 0x70, 0xc1, 0x05, 0x17, 0x5c, 0x70, 0xc1,
   0x1d, 0x1c, 0xf0, 0xc0, 0x03, 0x0f, 0x3c, 0x70, 0xc0, 0x01, 0x07, 0x08,
   0x00, 0x00, 0x00, 0x00, 0x00, 0x00, 0x00, 0x00, 0x00, 0x04, 0x00, 0x00,
   0x00, 0x00, 0x00, 0x00, 0x00, 0x00, 0x00, 0x04, 0x00, 0x00, 0x00, 0x00,
   0x00, 0x00, 0x00, 0x00, 0x00, 0x08, 0x00, 0x00, 0x00, 0x00, 0x00, 0x00,
   0x00, 0x00, 0x00, 0x04, 0x00, 0x00, 0x00, 0x00, 0x00, 0x00, 0x00, 0x00,
   0x00, 0x04, 0x00, 0x00, 0x00, 0x00, 0x00, 0x00, 0x00, 0x00, 0x80, 0x03,
   0x00, 0x00, 0x00, 0x00, 0x00, 0x00, 0x00, 0x00, 0x00, 0x00, 0x00, 0x00,
   0x00, 0x00, 0x00, 0x00, 0x00, 0x00, 0x00, 0x00, 0x00, 0x00, 0x00, 0x00,
   0x00, 0x00, 0x00, 0x00, 0x00, 0x00, 0x00, 0x00, 0x00, 0x00, 0x00, 0x00,
   0x00, 0x00, 0x00, 0x00, 0x00, 0x00, 0x00, 0x00, 0x0f, 0x00, 0x00, 0x00,
   0x00, 0x00, 0x00, 0x20, 0x00, 0x04, 0x1c, 0x00, 0x00, 0x40, 0x00, 0x00,
   0x00, 0x00, 0x00, 0x80, 0x00, 0x00, 0x00, 0x00, 0x00, 0x00, 0x00, 0x40,
   0x00, 0x02, 0x14, 0x00, 0x00, 0x40, 0x00, 0x00, 0x00, 0x00, 0x00, 0x40,
   0x00, 0x00, 0x00, 0x00, 0x00, 0x00, 0x00, 0x00, 0x00, 0x00, 0x1c, 0x00,
   0x00, 0x40, 0x00, 0x00, 0x18, 0xe8, 0x80, 0x47, 0x00, 0x18, 0x60, 0x00,
   0x03, 0x04, 0x70, 0x11, 0x42, 0x08, 0x3c, 0x84, 0x10, 0x42, 0x07, 0x21,
   0x24, 0x18, 0x41, 0x44, 0x0f, 0x24, 0x90, 0x80, 0x04, 0x00, 0x88, 0x10,
   0x42, 0x08, 0x22, 0x84, 0x10, 0xc2, 0x08, 0x21, 0x42, 0x08, 0x21, 0xc4,
   0x10, 0x42, 0x08, 0x41, 0x88, 0x3f, 0x44, 0x11, 0x42, 0x08, 0x21, 0x84,
   0x20, 0x42, 0x08, 0x22, 0x42, 0x08, 0x21, 0x44, 0x10, 0x42, 0x08, 0x41,
   0x08, 0x00, 0x24, 0x11, 0x42, 0x08, 0x21, 0x84, 0x20, 0x41, 0x08, 0x12,
   0x42, 0x08, 0x21, 0x44, 0x10, 0x42, 0x08, 0x41, 0x08, 0x04, 0x24, 0x11,
   0x42, 0x08, 0x21, 0x84, 0x40, 0x41, 0x08, 0x14, 0x42, 0x08, 0x21, 0x44,
   0x10, 0x42, 0x08, 0x41, 0x08, 0x00, 0x14, 0x11, 0x42, 0x08, 0x21, 0x84,
   0xc0, 0x40, 0x08, 0x0c, 0x24, 0x08, 0x21, 0x86, 0x08, 0x24, 0x90, 0x80,
   0x04, 0x00, 0x88, 0x10, 0x43, 0x0c, 0x31, 0xc4, 0x80, 0x40, 0x04, 0x08,
   0x18, 0x08, 0xc1, 0x05, 0x07, 0x18, 0x60, 0x00, 0x03, 0x00, 0x74, 0xe0,
   0x82, 0x0b, 0x2e, 0xb8, 0x80, 0xc0, 0x03, 0x08, 0x00, 0x00, 0x00, 0x04,
   0x00, 0x00, 0x00, 0x00, 0x00, 0x00, 0x00, 0x00, 0x00, 0x00, 0x00, 0x00,
   0x40, 0x00, 0x00, 0x04, 0x00, 0x00, 0x20, 0x02, 0x00, 0x00, 0x00, 0x00,
   0x00, 0x00, 0x00, 0x00, 0x00, 0x00, 0x00, 0x00, 0x40, 0x00, 0x00, 0x04,
   0x00, 0x00, 0xc0, 0x01, 0x00, 0x00, 0x00, 0x00, 0x00, 0x00, 0x00, 0x00,
   0x00, 0x00, 0x00, 0x00, 0x38, 0x00, 0x80, 0x03 };
