#define font10x16_width 160
#define font10x16_height 256
static unsigned char font10x16_bits[] = {
   0x00, 0x00, 0x00, 0x00, 0x00, 0x00, 0x00, 0x00, 0x00, 0x00, 0x00, 0x00,
   0x00, 0x00, 0x00, 0x00, 0x00, 0x00, 0x00, 0x00, 0x00, 0x00, 0x00, 0x00,
   0x00, 0x00, 0x00, 0xf0, 0xff, 0xf3, 0x00, 0x00, 0x00, 0x00, 0x00, 0x00,
   0x00, 0x00, 0x00, 0x00, 0x00, 0x00, 0x00, 0x00, 0x00, 0x00, 0x00, 0xf0,
   0xff, 0xf3, 0x00, 0x00, 0x00, 0x00, 0x00, 0x00, 0x00, 0x00, 0x00, 0x00,
   0x00, 0x00, 0x00, 0x80, 0x01, 0x80, 0x01, 0xf0, 0xff, 0xe1, 0x00, 0x00,
   0x00, 0x00, 0x00, 0x38, 0xc0, 0xe1, 0x9f, 0x7f, 0x00, 0x80, 0x00, 0x80,
   0x02, 0x40, 0x79, 0xf0, 0xff, 0xc0, 0x00, 0x00, 0x00, 0x00, 0x00, 0xee,
   0x70, 0x27, 0x90, 0x40, 0x00, 0xc0, 0x01, 0x80, 0x04, 0x20, 0x85, 0xff,
   0x5f, 0x8c, 0x00, 0x00, 0x00, 0x00, 0x00, 0x82, 0x90, 0x24, 0x90, 0x50,
   0x00, 0xe0, 0x03, 0x80, 0x08, 0x10, 0x05, 0xf8, 0x5f, 0x9e, 0x00, 0x00,
   0x00, 0x00, 0x00, 0x83, 0xd9, 0x2d, 0x90, 0x48, 0x00, 0xf0, 0xe7, 0xbf,
   0x10, 0x08, 0x05, 0xf8, 0x07, 0x3f, 0x00, 0x00, 0x00, 0x00, 0x00, 0x01,
   0xe9, 0x2b, 0x90, 0x4a, 0x00, 0xf8, 0xcf, 0x9f, 0x20, 0x04, 0x05, 0xf8,
   0x07, 0x3f, 0x00, 0x00, 0x00, 0x00, 0x00, 0x83, 0xd9, 0x2d, 0x90, 0x44,
   0x00, 0x00, 0x80, 0x8f, 0x10, 0x08, 0x05, 0xf8, 0x63, 0x9e, 0x00, 0x00,
   0x00, 0x00, 0x00, 0x82, 0x90, 0x24, 0x90, 0x40, 0x00, 0x00, 0x00, 0x87,
   0x08, 0x10, 0x05, 0xf8, 0x63, 0x8c, 0x00, 0x00, 0x00, 0x00, 0x00, 0xee,
   0x70, 0xe7, 0x9f, 0x7f, 0x00, 0x00, 0x00, 0x82, 0x04, 0x20, 0x05, 0xf8,
   0xf9, 0xc0, 0x00, 0x00, 0x00, 0x00, 0x00, 0x38, 0xc0, 0x01, 0x00, 0x00,
   0x00, 0x00, 0x00, 0x80, 0x02, 0x40, 0xf9, 0xf7, 0xf9, 0xe1, 0x00, 0x00,
   0x00, 0x00, 0x00, 0x00, 0x00, 0x00, 0x00, 0x00, 0x00, 0x00, 0x00, 0x80,
   0x01, 0x80, 0x01, 0xf0, 0xfc, 0xf3, 0x00, 0x00, 0x00, 0x00, 0x00, 0x00,
   0x00, 0x00, 0x00, 0x00, 0x00, 0x00, 0x00, 0x00, 0x00, 0x00, 0x00, 0xf0,
   0xfc, 0xf3, 0x00, 0x00, 0x00, 0x00, 0x00, 0x00, 0x00, 0x00, 0x00, 0x00,
   0x00, 0x00, 0x00, 0x00, 0x00, 0x00, 0x00, 0x00, 0x00, 0x00, 0x00, 0x00,
   0x00, 0x00, 0x00, 0x00, 0x00, 0x00, 0x00, 0x00, 0x00, 0x00, 0x00, 0x00,
   0x00, 0x00, 0x00, 0x00, 0x00, 0x00, 0x00, 0x00, 0x00, 0x00, 0x00, 0x00,
   0x00, 0x00, 0x00, 0x00, 0x00, 0x00, 0x00, 0x00, 0x00, 0x00, 0x00, 0x00,
   0x00, 0x00, 0x00, 0x00, 0x00, 0x00, 0x00, 0x00, 0x00, 0x00, 0x00, 0x00,
   0x00, 0x00, 0x00, 0x00, 0x00, 0x00, 0x00, 0x00, 0x00, 0x00, 0x00, 0x00,
   0x00, 0x00, 0x00, 0x00, 0x00, 0x00, 0x00, 0x00, 0x00, 0x00, 0x00, 0x00,
   0x00, 0x00, 0x00, 0x00, 0x00, 0x00, 0x00, 0x00, 0x00, 0x00, 0x00, 0x00,
   0x00, 0x00, 0x00, 0x00, 0x00, 0x00, 0x00, 0x00, 0x00, 0x00, 0x00, 0x00,
   0x00, 0x00, 0x00, 0x00, 0x00, 0x00, 0x00, 0x00, 0x00, 0x00, 0x00, 0x00,
   0x00, 0x00, 0x00, 0x00, 0x00, 0x00, 0x00, 0x00, 0x00, 0x00, 0x00, 0x00,
   0x00, 0x00, 0x00, 0x00, 0x00, 0x00, 0x00, 0x00, 0x00, 0x00, 0x00, 0x00,
   0x00, 0x00, 0x00, 0x00, 0x00, 0x00, 0x00, 0x00, 0x00, 0x00, 0x00, 0x00,
   0x00, 0x00, 0x00, 0x00, 0x00, 0x00, 0x00, 0x00, 0x00, 0x00, 0x00, 0x00,
   0x00, 0x00, 0x00, 0x00, 0x00, 0x00, 0x00, 0x00, 0x00, 0x00, 0x00, 0x00,
   0x00, 0x00, 0x00, 0x00, 0x00, 0x00, 0x00, 0x00, 0x00, 0x00, 0x00, 0x00,
   0x00, 0x00, 0x00, 0x00, 0x00, 0x00, 0x00, 0x00, 0x00, 0x00, 0x00, 0x00,
   0x00, 0x00, 0x00, 0x00, 0x00, 0x00, 0x00, 0x00, 0x00, 0x00, 0x00, 0x00,
   0x00, 0x00, 0x00, 0x00, 0x00, 0x00, 0x00, 0x00, 0x00, 0x00, 0x00, 0x00,
   0x00, 0x00, 0x00, 0x00, 0x00, 0x00, 0x00, 0x00, 0x00, 0x00, 0x00, 0x00,
   0x00, 0x00, 0x00, 0x00, 0x00, 0x00, 0x00, 0x00, 0x00, 0x00, 0x00, 0x00,
   0x00, 0x00, 0x00, 0x00, 0x00, 0x00, 0x00, 0x00, 0x00, 0x00, 0x00, 0x00,
   0x00, 0x00, 0x00, 0x00, 0x00, 0x00, 0x00, 0x00, 0x00, 0x00, 0x00, 0x00,
   0x00, 0x00, 0x00, 0x00, 0x00, 0x00, 0x00, 0x00, 0x00, 0x00, 0x00, 0x00,
   0x00, 0x00, 0x00, 0x00, 0x00, 0x00, 0x00, 0x00, 0x00, 0x00, 0x00, 0x00,
   0x00, 0x00, 0x00, 0x00, 0x00, 0x00, 0x00, 0x00, 0x00, 0x00, 0x00, 0x00,
   0x00, 0x00, 0x00, 0x00, 0x00, 0x00, 0x00, 0x00, 0x00, 0x00, 0x00, 0x00,
   0x00, 0x00, 0x00, 0x00, 0x00, 0x00, 0x00, 0x00, 0x00, 0x00, 0x00, 0x00,
   0x00, 0x00, 0x00, 0x00, 0x00, 0x00, 0x00, 0x00, 0x00, 0x00, 0x00, 0x00,
   0x00, 0x00, 0x00, 0x00, 0x00, 0x00, 0x00, 0x00, 0x00, 0x00, 0x00, 0x00,
   0x00, 0x00, 0x00, 0x00, 0x00, 0x00, 0x00, 0x00, 0x00, 0x00, 0x00, 0x00,
   0x00, 0x00, 0x00, 0x00, 0x00, 0x00, 0x00, 0x00, 0x00, 0x40, 0x00, 0x02,
   0x00, 0x10, 0x00, 0x00, 0x01, 0x00, 0x40, 0x00, 0x00, 0x04, 0x00, 0x00,
   0x00, 0x00, 0x00, 0x00, 0x00, 0x40, 0xc0, 0x02, 0x00, 0x10, 0x30, 0x86,
   0x03, 0x00, 0x40, 0x60, 0x00, 0x04, 0x00, 0x00, 0x00, 0x00, 0x00, 0x00,
   0x00, 0x60, 0xc0, 0x02, 0x0b, 0x3c, 0x68, 0x46, 0x04, 0x0c, 0x30, 0x80,
   0x80, 0x35, 0x00, 0x00, 0x00, 0x00, 0x00, 0x60, 0x00, 0x40, 0x00, 0x00,
   0x0b, 0x5a, 0x48, 0x42, 0x00, 0x08, 0x20, 0xc0, 0x00, 0x1f, 0x08, 0x00,
   0x00, 0x00, 0x00, 0x10, 0x00, 0x60, 0x00, 0x80, 0x1f, 0x5a, 0xf8, 0xc1,
   0x00, 0x08, 0x30, 0x80, 0x00, 0x0e, 0x0c, 0x00, 0x00, 0x00, 0x00, 0x10,
   0x00, 0x40, 0x00, 0x80, 0x3f, 0x1a, 0x90, 0x80, 0x01, 0x00, 0x18, 0x00,
   0x01, 0x1f, 0x0c, 0x00, 0x00, 0x00, 0x00, 0x10, 0x00, 0x60, 0x00, 0x00,
   0x09, 0x3c, 0x60, 0x43, 0x03, 0x00, 0x08, 0x00, 0x81, 0x35, 0x7f, 0x00,
   0xf0, 0x07, 0x00, 0x0c, 0x00, 0x40, 0x00, 0x80, 0x3f, 0xd8, 0xb0, 0x46,
   0x34, 0x00, 0x18, 0x00, 0x01, 0x04, 0x0c, 0x00, 0x00, 0x00, 0x00, 0x06,
   0x00, 0x40, 0x00, 0x80, 0x1b, 0x52, 0x88, 0x46, 0x0c, 0x00, 0x18, 0x00,
   0x01, 0x04, 0x08, 0x00, 0x00, 0x00, 0x00, 0x02, 0x00, 0x00, 0x00, 0x00,
   0x0b, 0x5e, 0x98, 0xc4, 0x18, 0x00, 0x10, 0x80, 0x01, 0x00, 0x08, 0x00,
   0x00, 0x00, 0x00, 0x06, 0x00, 0x60, 0x00, 0x00, 0x0b, 0x3c, 0x08, 0x83,
   0x37, 0x00, 0x30, 0x80, 0x00, 0x00, 0x00, 0x30, 0x00, 0x00, 0x03, 0x01,
   0x00, 0x00, 0x00, 0x00, 0x00, 0x10, 0x00, 0x00, 0x00, 0x00, 0x20, 0xc0,
   0x00, 0x00, 0x00, 0x18, 0x00, 0x00, 0x00, 0x00, 0x00, 0x00, 0x00, 0x00,
   0x00, 0x10, 0x00, 0x00, 0x00, 0x00, 0x60, 0x20, 0x00, 0x00, 0x00, 0x00,
   0x00, 0x00, 0x00, 0x00, 0x00, 0x00, 0x00, 0x00, 0x00, 0x00, 0x00, 0x00,
   0x00, 0x00, 0x40, 0x40, 0x00, 0x00, 0x00, 0x00, 0x00, 0x00, 0x00, 0x00,
   0x00, 0x00, 0x00, 0x00, 0x00, 0x00, 0x00, 0x00, 0x00, 0x00, 0x00, 0x00,
   0x00, 0x00, 0x00, 0x00, 0x00, 0x00, 0x00, 0x00, 0x00, 0x00, 0x00, 0x00,
   0x00, 0x00, 0x00, 0x00, 0x00, 0x00, 0x00, 0x00, 0x00, 0x00, 0x00, 0x00,
   0x00, 0x00, 0x00, 0x00, 0x00, 0x00, 0x00, 0x00, 0x00, 0x00, 0x00, 0x00,
   0x00, 0x00, 0x00, 0x00, 0x00, 0x00, 0x00, 0x00, 0x00, 0x00, 0x00, 0x00,
   0x28, 0x00, 0x80, 0x02, 0x0a, 0x20, 0x50, 0x01, 0x04, 0x2a, 0x50, 0x40,
   0x01, 0x00, 0x00, 0x00, 0x00, 0x00, 0x00, 0x14, 0x3c, 0x60, 0xc0, 0x03,
   0x0f, 0x20, 0xf8, 0x03, 0x07, 0x7f, 0x78, 0xe0, 0x01, 0x00, 0x00, 0x00,
   0x00, 0x00, 0x00, 0x1e, 0xc2, 0x70, 0x20, 0x8c, 0x30, 0x38, 0x08, 0x80,
   0x01, 0x61, 0x84, 0x11, 0x06, 0x00, 0x00, 0x00, 0x00, 0x00, 0x00, 0x61,
   0x62, 0x68, 0x00, 0x04, 0x10, 0x24, 0x08, 0x40, 0x00, 0x20, 0x84, 0x10,
   0x02, 0x02, 0x08, 0x80, 0x00, 0x40, 0x00, 0x21, 0xf6, 0x48, 0x00, 0x06,
   0x18, 0x2c, 0xb8, 0xc0, 0x05, 0x30, 0xdc, 0x10, 0x06, 0x02, 0x08, 0xc0,
   0x60, 0xc3, 0x02, 0x61, 0x5a, 0x60, 0x00, 0x02, 0x0e, 0x62, 0xf8, 0xc0,
   0x07, 0x10, 0x78, 0x30, 0x06, 0x00, 0x00, 0x70, 0xf0, 0x83, 0x03, 0x20,
   0xce, 0x60, 0x80, 0x01, 0x30, 0xfe, 0x08, 0x43, 0x18, 0x10, 0x84, 0xe1,
   0x07, 0x00, 0x00, 0x1c, 0x00, 0x00, 0x1c, 0x10, 0x42, 0x40, 0x40, 0x00,
   0x10, 0x20, 0x00, 0x41, 0x08, 0x08, 0x84, 0x00, 0x02, 0x00, 0x00, 0x60,
   0xf0, 0x87, 0x03, 0x08, 0xc2, 0x60, 0x60, 0x80, 0x30, 0x20, 0x00, 0x43,
   0x18, 0x0c, 0x84, 0x01, 0x03, 0x00, 0x00, 0xc0, 0x50, 0xc1, 0x02, 0x08,
   0x66, 0x50, 0x61, 0x81, 0x12, 0x20, 0x90, 0xc1, 0x0c, 0x08, 0xcc, 0x80,
   0x01, 0x00, 0x00, 0x80, 0x00, 0x40, 0x00, 0x00, 0x3c, 0xf8, 0xe3, 0x0f,
   0x0f, 0x20, 0xf8, 0x80, 0x07, 0x0c, 0x78, 0xe0, 0x00, 0x03, 0x0c, 0x00,
   0x00, 0x00, 0x00, 0x0c, 0x00, 0x00, 0x00, 0x00, 0x00, 0x00, 0x00, 0x00,
   0x00, 0x00, 0x00, 0x00, 0x00, 0x00, 0x06, 0x00, 0x00, 0x00, 0x00, 0x00,
   0x00, 0x00, 0x00, 0x00, 0x00, 0x00, 0x00, 0x00, 0x00, 0x00, 0x00, 0x00,
   0x00, 0x00, 0x00, 0x00, 0x00, 0x00, 0x00, 0x00, 0x00, 0x00, 0x00, 0x00,
   0x00, 0x00, 0x00, 0x00, 0x00, 0x00, 0x00, 0x00, 0x00, 0x00, 0x00, 0x00,
   0x00, 0x00, 0x00, 0x00, 0x00, 0x00, 0x00, 0x00, 0x00, 0x00, 0x00, 0x00,
   0x00, 0x00, 0x00, 0x00, 0x00, 0x00, 0x00, 0x00, 0x00, 0x00, 0x00, 0x00,
   0x00, 0x00, 0x00, 0x00, 0x00, 0x00, 0x00, 0x00, 0x00, 0x00, 0x00, 0x00,
   0x00, 0x00, 0x00, 0x00, 0x00, 0x00, 0x00, 0x00, 0x20, 0x00, 0xa0, 0x02,
   0x0a, 0x0a, 0x50, 0x81, 0x0a, 0x14, 0x84, 0x40, 0x01, 0x08, 0x21, 0x04,
   0x10, 0x42, 0x08, 0x00, 0x38, 0x60, 0xe0, 0x03, 0x0f, 0x1e, 0xf8, 0xc3,
   0x1f, 0x1e, 0x84, 0xe1, 0x01, 0x18, 0x21, 0x04, 0x10, 0x46, 0x18, 0x00,
   0xcc, 0x60, 0x20, 0x8c, 0x30, 0x22, 0x08, 0x40, 0x00, 0x61, 0x84, 0xc1,
   0x00, 0x18, 0x11, 0x04, 0x70, 0xc7, 0x19, 0x00, 0x62, 0x40, 0x20, 0x84,
   0x00, 0xc6, 0x08, 0x40, 0x00, 0x01, 0x84, 0x80, 0x00, 0x08, 0x0b, 0x0c,
   0x70, 0xc3, 0x09, 0x00, 0xe6, 0xa0, 0xe0, 0x86, 0x00, 0xc2, 0xb8, 0xc0,
   0x05, 0x01, 0xdc, 0xc1, 0x00, 0x18, 0x0f, 0x04, 0xb0, 0xc7, 0x1a, 0x00,
   0x5a, 0xb0, 0xe0, 0x83, 0x01, 0x42, 0xf8, 0xc0, 0x07, 0x03, 0xfc, 0x80,
   0x00, 0x08, 0x07, 0x04, 0xd0, 0x42, 0x0b, 0x00, 0xd6, 0xb0, 0x20, 0x8c,
   0x00, 0xc6, 0x08, 0x40, 0x00, 0x71, 0x84, 0xc1, 0x00, 0x18, 0x07, 0x04,
   0x10, 0x46, 0xda, 0x1f, 0x5a, 0xf8, 0x23, 0x84, 0x00, 0x42, 0x08, 0x40,
   0x00, 0x61, 0x84, 0x80, 0x40, 0x08, 0x0d, 0x0c, 0x10, 0xc2, 0x1c, 0x00,
   0xe2, 0x58, 0x23, 0x8c, 0x10, 0x62, 0x08, 0x40, 0x00, 0x63, 0x84, 0xc1,
   0x40, 0x18, 0x11, 0x04, 0x10, 0x46, 0x1c, 0x00, 0x66, 0x08, 0x61, 0x85,
   0x19, 0x36, 0x58, 0xc0, 0x00, 0x29, 0x8c, 0xc0, 0xc0, 0x0c, 0x11, 0x2c,
   0x10, 0xc2, 0x0c, 0x00, 0x0c, 0x08, 0xe3, 0x03, 0x0f, 0x1e, 0xf8, 0x43,
   0x00, 0x1e, 0x84, 0xe1, 0x81, 0x07, 0x63, 0xfc, 0x11, 0x46, 0x18, 0x00,
   0xf0, 0x00, 0x00, 0x00, 0x00, 0x00, 0x00, 0x00, 0x00, 0x00, 0x00, 0x00,
   0x00, 0x00, 0x00, 0x00, 0x00, 0x00, 0x00, 0x00, 0x10, 0x00, 0x00, 0x00,
   0x00, 0x00, 0x00, 0x00, 0x00, 0x00, 0x00, 0x00, 0x00, 0x00, 0x00, 0x00,
   0x00, 0x00, 0x00, 0x00, 0x00, 0x00, 0x00, 0x00, 0x00, 0x00, 0x00, 0x00,
   0x00, 0x00, 0x00, 0x00, 0x00, 0x00, 0x00, 0x00, 0x00, 0x00, 0x00, 0x00,
   0x00, 0x00, 0x00, 0x00, 0x00, 0x00, 0x00, 0x00, 0x00, 0x00, 0x00, 0x00,
   0x00, 0x00, 0x00, 0x00, 0x00, 0x00, 0x00, 0x00, 0x00, 0x00, 0x00, 0x00,
   0x00, 0x00, 0x00, 0x00, 0x00, 0x00, 0x00, 0x00, 0x00, 0x00, 0x00, 0x00,
   0x00, 0x00, 0x00, 0x00, 0x00, 0x00, 0x00, 0x00, 0x00, 0x00, 0x00, 0x00,
   0x00, 0x00, 0x00, 0x00, 0x00, 0x00, 0x00, 0x00, 0x00, 0x00, 0x00, 0x00,
   0x28, 0xa8, 0x80, 0x82, 0x0a, 0x28, 0xa8, 0x40, 0x00, 0x00, 0x00, 0x00,
   0x00, 0x00, 0x2a, 0x50, 0x00, 0x00, 0x05, 0x00, 0x3c, 0xf8, 0xc0, 0x83,
   0x0f, 0x3c, 0xf8, 0x43, 0x18, 0x61, 0x84, 0x11, 0x46, 0x18, 0x7f, 0x78,
   0x60, 0x80, 0x07, 0x00, 0xc2, 0x08, 0x23, 0x8c, 0x30, 0xc2, 0x60, 0x40,
   0x18, 0x63, 0x8c, 0x31, 0xc6, 0x18, 0x20, 0x18, 0x60, 0x00, 0x04, 0x00,
   0xc2, 0x08, 0x23, 0x8c, 0x30, 0x02, 0x40, 0xc0, 0x18, 0x61, 0xa4, 0x61,
   0x81, 0x05, 0x30, 0x18, 0x80, 0x00, 0x04, 0x00, 0x42, 0x08, 0x21, 0x84,
   0x10, 0x2e, 0x60, 0x40, 0x08, 0x21, 0xac, 0x40, 0x81, 0x04, 0x08, 0x08,
   0xc0, 0x00, 0x04, 0x00, 0xc2, 0x18, 0x23, 0x8c, 0x31, 0x3c, 0x40, 0x40,
   0x18, 0x63, 0xb4, 0xc1, 0x80, 0x05, 0x0c, 0x18, 0x80, 0x00, 0x04, 0x00,
   0x46, 0xf8, 0x60, 0x84, 0x0f, 0xc0, 0x60, 0x40, 0x08, 0x16, 0xb4, 0x80,
   0x00, 0x02, 0x08, 0x18, 0x00, 0x01, 0xc4, 0x1f, 0xc2, 0x18, 0x20, 0x8c,
   0x06, 0xc0, 0x40, 0x40, 0x18, 0x16, 0x58, 0x60, 0x01, 0x03, 0x06, 0x18,
   0x00, 0x01, 0x04, 0x00, 0x42, 0x08, 0x20, 0x84, 0x0c, 0x42, 0x60, 0xc0,
   0x08, 0x0c, 0x48, 0x10, 0x03, 0x02, 0x01, 0x08, 0x00, 0x03, 0x04, 0x00,
   0x56, 0x08, 0x60, 0x85, 0x18, 0x56, 0x40, 0xc0, 0x0a, 0x08, 0x58, 0x30,
   0x06, 0x03, 0x17, 0x18, 0x00, 0x06, 0x04, 0x00, 0x3c, 0x08, 0xc0, 0x83,
   0x10, 0x3c, 0x60, 0x80, 0x07, 0x0c, 0x58, 0x10, 0x02, 0x02, 0x7f, 0x18,
   0x00, 0x02, 0x04, 0x00, 0x00, 0x00, 0x00, 0x02, 0x00, 0x00, 0x00, 0x00,
   0x00, 0x00, 0x00, 0x00, 0x00, 0x00, 0x00, 0x18, 0x00, 0x00, 0x04, 0x00,
   0x00, 0x00, 0x00, 0x1c, 0x00, 0x00, 0x00, 0x00, 0x00, 0x00, 0x00, 0x00,
   0x00, 0x00, 0x00, 0x78, 0x00, 0x80, 0x07, 0x00, 0x00, 0x00, 0x00, 0x14,
   0x00, 0x00, 0x00, 0x00, 0x00, 0x00, 0x00, 0x00, 0x00, 0x00, 0x00, 0x60,
   0x00, 0x00, 0x07, 0x00, 0x00, 0x00, 0x00, 0x00, 0x00, 0x00, 0x00, 0x00,
   0x00, 0x00, 0x00, 0x00, 0x00, 0x00, 0x00, 0x00, 0x00, 0x00, 0x00, 0x00,
   0x00, 0x00, 0x00, 0x00, 0x00, 0x00, 0x00, 0x00, 0x00, 0x00, 0x00, 0x00,
   0x00, 0x00, 0x00, 0x00, 0x00, 0x00, 0x00, 0x00, 0x10, 0x00, 0x00, 0x00,
   0x00, 0x00, 0x00, 0x00, 0x00, 0x00, 0x00, 0x00, 0x00, 0x00, 0x00, 0x00,
   0x00, 0x00, 0x00, 0x00, 0x10, 0x00, 0x00, 0x00, 0x00, 0x00, 0x00, 0x00,
   0x00, 0x00, 0x00, 0x00, 0x00, 0x00, 0x00, 0x00, 0x00, 0x00, 0x00, 0x00,
   0x2c, 0x00, 0x00, 0x00, 0x00, 0x00, 0x00, 0x00, 0x00, 0x00, 0x00, 0x00,
   0x00, 0x00, 0x00, 0x00, 0x00, 0x00, 0x00, 0x00, 0xc6, 0x00, 0x00, 0x00,
   0x00, 0x00, 0x00, 0x00, 0x00, 0x00, 0x00, 0x00, 0x00, 0x00, 0x00, 0x00,
   0x00, 0x00, 0x00, 0x00, 0x00, 0x00, 0x00, 0x00, 0x00, 0x00, 0x00, 0x00,
   0x00, 0x00, 0x00, 0x00, 0x00, 0x00, 0x00, 0x00, 0x00, 0x00, 0x00, 0x00,
   0x00, 0x00, 0x00, 0x00, 0x00, 0x00, 0x00, 0x00, 0x00, 0x00, 0x00, 0x00,
   0x00, 0x00, 0x00, 0x00, 0x00, 0x00, 0x00, 0x00, 0x00, 0x00, 0x00, 0x00,
   0x00, 0x00, 0x00, 0x00, 0x00, 0x00, 0x00, 0x00, 0x00, 0x00, 0x00, 0x00,
   0x00, 0x00, 0x00, 0x00, 0x00, 0x00, 0x00, 0x00, 0x00, 0x00, 0x00, 0x00,
   0x00, 0x00, 0x00, 0x00, 0x00, 0x00, 0x00, 0x00, 0x00, 0x00, 0x00, 0x00,
   0x00, 0x00, 0x00, 0x00, 0x00, 0x00, 0x00, 0x00, 0x00, 0x00, 0x00, 0x00,
   0x00, 0x00, 0x00, 0x00, 0x00, 0x00, 0x00, 0x00, 0x00, 0x00, 0x00, 0x00,
   0x00, 0x00, 0x00, 0x00, 0x00, 0x00, 0x00, 0x00, 0x00, 0x00, 0x00, 0x00,
   0x00, 0x00, 0x00, 0x00, 0x00, 0x00, 0x00, 0x00, 0x00, 0x00, 0x00, 0x00,
   0x00, 0x00, 0x00, 0x00, 0x00, 0x00, 0x00, 0x00, 0x00, 0x00, 0x00, 0x00,
   0x00, 0x00, 0x00, 0x00, 0x00, 0x00, 0x00, 0x00, 0x00, 0x00, 0x00, 0x00,
   0x00, 0x00, 0x00, 0x00, 0x00, 0x00, 0x00, 0x00, 0x00, 0xf8, 0x01, 0x00,
   0x00, 0x00, 0x00, 0x00, 0x00, 0x00, 0x00, 0x00, 0x00, 0x00, 0x00, 0x00,
   0x00, 0x00, 0x00, 0x00, 0x00, 0xb0, 0x01, 0x00, 0x00, 0x00, 0x00, 0x00,
   0x00, 0x00, 0x00, 0x00, 0x00, 0x00, 0x00, 0x00, 0x00, 0x00, 0x00, 0x00,
   0x00, 0x00, 0x00, 0x00, 0x00, 0x00, 0x00, 0x00, 0x00, 0x00, 0x00, 0x00,
   0x00, 0x00, 0x00, 0x00, 0x00, 0x00, 0x00, 0x00, 0x00, 0x00, 0x00, 0x00,
   0x00, 0x00, 0x00, 0x00, 0x00, 0x00, 0x00, 0x00, 0x00, 0x00, 0x00, 0x00,
   0x00, 0x00, 0x00, 0x00, 0x00, 0x00, 0x00, 0x00, 0x00, 0x00, 0x00, 0x00,
   0x00, 0x00, 0x00, 0x00, 0x00, 0x00, 0x00, 0x00, 0x00, 0x00, 0x00, 0x00,
   0x00, 0x00, 0x20, 0x00, 0x00, 0x40, 0x00, 0x00, 0x04, 0x00, 0x04, 0x00,
   0x00, 0x04, 0x01, 0x10, 0x00, 0x00, 0x00, 0x00, 0x00, 0x00, 0x20, 0x00,
   0x00, 0xc0, 0x00, 0x00, 0x07, 0x00, 0x04, 0xc0, 0x00, 0x04, 0x01, 0x38,
   0x00, 0x00, 0x00, 0x00, 0x18, 0x00, 0x20, 0x00, 0x00, 0xc0, 0x00, 0x80,
   0x01, 0x00, 0x04, 0x00, 0x00, 0x00, 0x01, 0x30, 0x00, 0x00, 0x00, 0x00,
   0x20, 0xf0, 0xe0, 0x03, 0x0f, 0x7c, 0xf0, 0xc0, 0x07, 0x3e, 0x7c, 0xf0,
   0x80, 0x07, 0x13, 0x20, 0x70, 0x41, 0x07, 0x1e, 0x20, 0xa8, 0xe1, 0x86,
   0x1a, 0xea, 0xa8, 0xc1, 0x05, 0x75, 0xdc, 0xd0, 0x00, 0x06, 0x19, 0x30,
   0x70, 0x43, 0x0d, 0x35, 0x00, 0x08, 0x23, 0x8c, 0x10, 0x42, 0x18, 0x83,
   0x01, 0x21, 0x84, 0xc1, 0x00, 0x04, 0x0b, 0x20, 0x90, 0xc6, 0x19, 0x61,
   0x00, 0xf0, 0x23, 0x8c, 0x00, 0xc2, 0xf8, 0x83, 0x01, 0x61, 0x84, 0x81,
   0x00, 0x04, 0x07, 0x30, 0xd0, 0x46, 0x18, 0x61, 0x00, 0x08, 0x21, 0x84,
   0x01, 0x42, 0x08, 0x80, 0x00, 0x23, 0x84, 0xc0, 0x00, 0x04, 0x0d, 0x20,
   0xd0, 0x42, 0x08, 0x23, 0x00, 0x18, 0x23, 0x8c, 0x10, 0xc2, 0x18, 0x81,
   0x01, 0x61, 0x84, 0x81, 0x00, 0x04, 0x11, 0x30, 0x90, 0x46, 0x18, 0x61,
   0x00, 0x48, 0x63, 0x85, 0x29, 0x66, 0x48, 0x81, 0x01, 0x33, 0x8c, 0xe0,
   0x02, 0x04, 0x13, 0xa8, 0xf0, 0xc2, 0x08, 0x33, 0x00, 0xf0, 0xe3, 0x03,
   0x0f, 0xfc, 0xf0, 0x80, 0x01, 0x7e, 0x84, 0xf1, 0x07, 0x04, 0x61, 0xfc,
   0x91, 0x46, 0x18, 0x1e, 0x00, 0x00, 0x00, 0x00, 0x00, 0x00, 0x00, 0x00,
   0x00, 0x20, 0x00, 0x00, 0x00, 0x04, 0x00, 0x00, 0x00, 0x00, 0x00, 0x00,
   0x00, 0x00, 0x00, 0x00, 0x00, 0x00, 0x00, 0x00, 0x00, 0x3c, 0x00, 0x00,
   0xc0, 0x07, 0x00, 0x00, 0x00, 0x00, 0x00, 0x00, 0x00, 0x00, 0x00, 0x00,
   0x00, 0x00, 0x00, 0x00, 0x00, 0x16, 0x00, 0x00, 0x40, 0x01, 0x00, 0x00,
   0x00, 0x00, 0x00, 0x00, 0x00, 0x00, 0x00, 0x00, 0x00, 0x00, 0x00, 0x00,
   0x00, 0x00, 0x00, 0x00, 0x00, 0x00, 0x00, 0x00, 0x00, 0x00, 0x00, 0x00,
   0x00, 0x00, 0x00, 0x00, 0x00, 0x00, 0x00, 0x00, 0x00, 0x00, 0x00, 0x00,
   0x00, 0x00, 0x00, 0x00, 0x00, 0x00, 0x00, 0x00, 0x00, 0x00, 0x00, 0x00,
   0x00, 0x00, 0x00, 0x00, 0x00, 0x00, 0x00, 0x00, 0x00, 0x00, 0x10, 0x00,
   0x00, 0x00, 0x00, 0x00, 0x00, 0x00, 0x00, 0x00, 0x00, 0x0c, 0x00, 0x00,
   0x00, 0x00, 0x00, 0x00, 0x00, 0x00, 0x10, 0x30, 0x60, 0x00, 0x00, 0x00,
   0x00, 0x00, 0x00, 0x00, 0x00, 0x0c, 0x00, 0x00, 0x00, 0x00, 0x00, 0x00,
   0x00, 0x00, 0x0c, 0x30, 0xc0, 0x00, 0x00, 0x00, 0x3e, 0xf0, 0xe1, 0x06,
   0x0f, 0x3e, 0x08, 0x41, 0x08, 0x21, 0x84, 0x10, 0xc2, 0x0f, 0x08, 0x20,
   0x80, 0x00, 0x00, 0x00, 0x6e, 0xa8, 0xc3, 0x86, 0x1a, 0x2e, 0x08, 0x43,
   0x18, 0x61, 0xcc, 0x10, 0x86, 0x0e, 0x0c, 0x30, 0xc0, 0x80, 0x0a, 0x00,
   0xc2, 0x08, 0xc1, 0x81, 0x10, 0x0c, 0x08, 0xc1, 0x08, 0x21, 0x58, 0x30,
   0x02, 0x04, 0x08, 0x20, 0x80, 0x80, 0x0b, 0x00, 0xc2, 0x08, 0xc3, 0x00,
   0x0f, 0x0c, 0x08, 0x83, 0x05, 0x6d, 0x30, 0x60, 0x01, 0x03, 0x06, 0x30,
   0x00, 0x41, 0x04, 0x00, 0x42, 0x18, 0x41, 0x00, 0x30, 0x04, 0x18, 0x81,
   0x05, 0x2d, 0x20, 0x60, 0x81, 0x00, 0x08, 0x20, 0x80, 0x00, 0x00, 0x00,
   0xc2, 0x08, 0xc3, 0x80, 0x30, 0x4c, 0x88, 0x03, 0x06, 0x35, 0x58, 0x80,
   0xc1, 0x00, 0x0c, 0x30, 0xc0, 0x00, 0x00, 0x00, 0x56, 0x98, 0xc1, 0x80,
   0x09, 0x64, 0xd8, 0x01, 0x03, 0x16, 0x48, 0xc0, 0xc0, 0x02, 0x08, 0x20,
   0x80, 0x00, 0x00, 0x00, 0x3e, 0xf0, 0xe3, 0x01, 0x0f, 0x38, 0x70, 0x03,
   0x02, 0x16, 0x8c, 0x81, 0xc0, 0x1f, 0x0c, 0x30, 0xc0, 0x00, 0x00, 0x00,
   0x02, 0x00, 0x01, 0x00, 0x00, 0x00, 0x00, 0x00, 0x00, 0x00, 0x00, 0x60,
   0x00, 0x00, 0x08, 0x20, 0x80, 0x00, 0x00, 0x00, 0x02, 0x00, 0x03, 0x00,
   0x00, 0x00, 0x00, 0x00, 0x00, 0x00, 0x00, 0x30, 0x00, 0x00, 0x10, 0x30,
   0x60, 0x00, 0x00, 0x00, 0x02, 0x00, 0x01, 0x00, 0x00, 0x00, 0x00, 0x00,
   0x00, 0x00, 0x00, 0x10, 0x00, 0x00, 0x10, 0x20, 0x40, 0x00, 0x00, 0x00,
   0x00, 0x00, 0x00, 0x00, 0x00, 0x00, 0x00, 0x00, 0x00, 0x00, 0x00, 0x00,
   0x00, 0x00, 0x00, 0x00, 0x00, 0x00, 0x00, 0x00, 0x00, 0x00, 0x00, 0x00,
   0x00, 0x00, 0x00, 0x00, 0x00, 0x00, 0x00, 0x00, 0x00, 0x00, 0x00, 0x00,
   0x00, 0x00, 0x00, 0x00, 0x00, 0x00, 0x00, 0x00, 0x00, 0x00, 0x00, 0x00,
   0x00, 0x00, 0x00, 0x00, 0x00, 0x00, 0x00, 0x00, 0x00, 0x00, 0x00, 0x00,
   0x00, 0x00, 0x00, 0x00, 0x00, 0x00, 0x00, 0x00, 0x00, 0x00, 0x00, 0x00,
   0x00, 0x00, 0x00, 0x00, 0x00, 0x00, 0x00, 0x00, 0x00, 0x00, 0x00, 0x00,
   0x00, 0x00, 0x00, 0x00, 0x00, 0x00, 0x00, 0x00, 0x00, 0x00, 0x00, 0x00,
   0x00, 0x00, 0x00, 0x00, 0x00, 0x00, 0x00, 0x00, 0x00, 0x00, 0x00, 0x00,
   0x00, 0x00, 0x00, 0x00, 0x00, 0x00, 0x00, 0x00, 0x00, 0x00, 0x00, 0x00,
   0x00, 0x00, 0x00, 0x00, 0x00, 0x00, 0x00, 0x00, 0x00, 0x00, 0x00, 0x00,
   0x00, 0x00, 0x00, 0x00, 0x00, 0x00, 0x00, 0x00, 0x00, 0x00, 0x00, 0x00,
   0x00, 0x00, 0x00, 0x00, 0x00, 0x00, 0x00, 0x00, 0x00, 0x00, 0x00, 0x00,
   0x00, 0x00, 0x00, 0x00, 0x00, 0x00, 0x00, 0x00, 0x00, 0x00, 0x00, 0x00,
   0x00, 0x00, 0x00, 0x00, 0x00, 0x00, 0x00, 0x00, 0x00, 0x00, 0x00, 0x00,
   0x00, 0x00, 0x00, 0x00, 0x00, 0x00, 0x00, 0x00, 0x00, 0x00, 0x00, 0x00,
   0x00, 0x00, 0x00, 0x00, 0x00, 0x00, 0x00, 0x00, 0x00, 0x00, 0x00, 0x00,
   0x00, 0x00, 0x00, 0x00, 0x00, 0x00, 0x00, 0x00, 0x00, 0x00, 0x00, 0x00,
   0x00, 0x00, 0x00, 0x00, 0x00, 0x00, 0x00, 0x00, 0x00, 0x00, 0x01, 0x00,
   0x00, 0x00, 0x00, 0x00, 0x00, 0x00, 0x00, 0x00, 0x00, 0x00, 0x00, 0x00,
   0x00, 0x00, 0x00, 0x00, 0x1c, 0x80, 0xc1, 0x18, 0x00, 0xf8, 0x87, 0x06,
   0x00, 0x0e, 0x00, 0x00, 0x00, 0x00, 0x00, 0x00, 0x00, 0x00, 0x00, 0x00,
   0x1e, 0xf8, 0x87, 0x0d, 0x00, 0x7c, 0x02, 0x80, 0x0f, 0x30, 0x00, 0x00,
   0x00, 0x00, 0x3e, 0x00, 0x00, 0x00, 0x00, 0x04, 0x1b, 0xfc, 0x87, 0x0d,
   0x08, 0x1c, 0x06, 0x40, 0x10, 0x30, 0x00, 0x00, 0x00, 0x00, 0x41, 0x00,
   0x00, 0x20, 0x00, 0x04, 0x03, 0xfc, 0xc3, 0x1d, 0x00, 0x04, 0x00, 0x30,
   0x6e, 0x36, 0xa0, 0x81, 0x03, 0xc0, 0xbe, 0x01, 0x00, 0x00, 0x80, 0x07,
   0x03, 0xfc, 0x03, 0x02, 0x00, 0x0c, 0x00, 0xa0, 0x21, 0x00, 0xd8, 0x00,
   0x03, 0x80, 0x8e, 0x00, 0x00, 0x20, 0x60, 0x86, 0x07, 0xfc, 0x03, 0x02,
   0x00, 0x04, 0x00, 0xb0, 0x61, 0x00, 0x58, 0x00, 0xc3, 0xdf, 0x8e, 0x01,
   0x00, 0x20, 0x60, 0x00, 0x03, 0xfc, 0xc7, 0x1f, 0x00, 0x0c, 0x00, 0xa0,
   0x21, 0x3e, 0xd8, 0x00, 0x03, 0x80, 0xf6, 0x00, 0x00, 0x20, 0x60, 0x80,
   0x23, 0xfc, 0x07, 0x02, 0x00, 0x04, 0x00, 0x30, 0x6e, 0x00, 0xa0, 0x01,
   0x01, 0x80, 0xe2, 0x00, 0x00, 0x20, 0x60, 0x86, 0x33, 0xf8, 0x07, 0x02,
   0x00, 0x1c, 0x06, 0xc0, 0x10, 0x00, 0x00, 0x00, 0x03, 0x00, 0x43, 0x00,
   0x00, 0x20, 0x60, 0x87, 0x1f, 0xf0, 0x83, 0x0f, 0x08, 0xf8, 0x01, 0x80,
   0x0f, 0x00, 0x00, 0x00, 0x03, 0x00, 0x3e, 0x00, 0x00, 0x20, 0xe0, 0x03,
   0x00, 0x00, 0x00, 0x00, 0x00, 0x20, 0x00, 0x00, 0x00, 0x00, 0x00, 0x00,
   0x00, 0x00, 0x00, 0x00, 0x00, 0x20, 0x60, 0x00, 0x00, 0x00, 0x00, 0x00,
   0x00, 0x20, 0x00, 0x00, 0x00, 0x00, 0x00, 0x00, 0x00, 0x00, 0x00, 0x00,
   0x00, 0x20, 0x00, 0x00, 0x00, 0x00, 0x00, 0x00, 0x00, 0xc0, 0x00, 0x00,
   0x00, 0x00, 0x00, 0x00, 0x00, 0x00, 0x00, 0x00, 0x00, 0x20, 0x00, 0x00,
   0x00, 0x00, 0x00, 0x00, 0x00, 0x38, 0x00, 0x00, 0x00, 0x00, 0x00, 0x00,
   0x00, 0x00, 0x00, 0x00, 0x00, 0x00, 0x00, 0x00, 0x00, 0x00, 0x00, 0x00,
   0x00, 0x00, 0x00, 0x00, 0x00, 0x00, 0x00, 0x00, 0x00, 0x00, 0x00, 0x00,
   0x00, 0x00, 0x00, 0x00, 0x00, 0x00, 0x00, 0x00, 0x00, 0x00, 0x00, 0x00,
   0x00, 0x00, 0x00, 0x00, 0x00, 0x00, 0x00, 0x00, 0x1c, 0x20, 0x00, 0x00,
   0x00, 0x08, 0x00, 0x00, 0x00, 0x00, 0x00, 0x70, 0xc0, 0x07, 0x00, 0xf0,
   0x0f, 0x80, 0x7f, 0x00, 0x26, 0x20, 0x00, 0x00, 0x00, 0x08, 0x00, 0xc0,
   0x3f, 0x00, 0x00, 0x80, 0xc1, 0x06, 0x00, 0x78, 0x0f, 0xc0, 0x7b, 0x00,
   0x62, 0x20, 0x00, 0x00, 0x00, 0x08, 0x18, 0xe3, 0x0d, 0x1c, 0x00, 0x80,
   0xc1, 0x06, 0x00, 0x6c, 0x06, 0x60, 0x33, 0x00, 0x26, 0xfc, 0x01, 0x00,
   0x00, 0x00, 0x08, 0xe3, 0x09, 0x3f, 0x00, 0xb0, 0xc1, 0x07, 0x1b, 0x6c,
   0x06, 0x60, 0x33, 0x00, 0x3c, 0x20, 0x80, 0x01, 0x18, 0x00, 0x18, 0xe2,
   0x0d, 0x3f, 0x00, 0x00, 0x00, 0x00, 0x24, 0x6c, 0x01, 0x60, 0x0b, 0x00,
   0x00, 0x20, 0x80, 0x03, 0x38, 0x00, 0x18, 0xe3, 0x0d, 0x3f, 0x00, 0x00,
   0x00, 0x00, 0x34, 0x90, 0x66, 0x80, 0x34, 0x03, 0x00, 0x20, 0x00, 0x03,
   0x30, 0x00, 0x18, 0xc3, 0x09, 0x3f, 0x00, 0xf0, 0xc1, 0x07, 0x24, 0x60,
   0xbb, 0x01, 0xdb, 0x0d, 0x00, 0x00, 0x80, 0x01, 0x38, 0x00, 0x08, 0x83,
   0x0d, 0x1c, 0x00, 0x00, 0x00, 0x00, 0x1b, 0x60, 0xb9, 0x00, 0xcb, 0x05,
   0x00, 0x00, 0x80, 0x00, 0x20, 0x00, 0x18, 0x03, 0x0d, 0x1c, 0x00, 0x00,
   0x00, 0x00, 0x00, 0x60, 0xbb, 0x01, 0xdb, 0x0d, 0x00, 0xfc, 0xc1, 0x03,
   0x3c, 0x00, 0xf8, 0x03, 0x09, 0x00, 0x00, 0x00, 0x00, 0x00, 0x00, 0x10,
   0x46, 0x80, 0x30, 0x02, 0x00, 0x00, 0x00, 0x00, 0x00, 0x00, 0x18, 0x00,
   0x0d, 0x00, 0x00, 0x00, 0x00, 0x00, 0x00, 0x00, 0x00, 0x00, 0x00, 0x00,
   0x00, 0x00, 0x00, 0x00, 0x00, 0x00, 0x08, 0x00, 0x0d, 0x00, 0x00, 0x00,
   0x00, 0x00, 0x00, 0x00, 0x00, 0x00, 0x00, 0x00, 0x00, 0x00, 0x00, 0x00,
   0x00, 0x00, 0x18, 0x00, 0x09, 0x00, 0x00, 0x00, 0x00, 0x00, 0x00, 0x00,
   0x00, 0x00, 0x00, 0x00, 0x00, 0x00, 0x00, 0x00, 0x00, 0x00, 0x00, 0x00,
   0x00, 0x00, 0x00, 0x00, 0x00, 0x00, 0x00, 0x00, 0x00, 0x00, 0x00, 0x00,
   0x18, 0x60, 0x03, 0x00, 0x08, 0x00, 0x80, 0x00, 0x00, 0x00, 0x0c, 0xf8,
   0x03, 0x01, 0x00, 0x08, 0x18, 0xe0, 0x03, 0x00, 0x20, 0x90, 0x80, 0x0d,
   0x36, 0xe0, 0x87, 0x00, 0x1f, 0xff, 0x10, 0x18, 0xc0, 0x06, 0x1b, 0x36,
   0x20, 0x80, 0xc0, 0x06, 0x00, 0x00, 0x00, 0x00, 0x00, 0xf0, 0x83, 0x80,
   0xbf, 0x4f, 0x00, 0x08, 0x00, 0x00, 0x00, 0x00, 0x00, 0x80, 0x00, 0x00,
   0x00, 0x00, 0x00, 0x00, 0x00, 0xf8, 0x86, 0xc0, 0x97, 0xc3, 0x00, 0x18,
   0x00, 0x00, 0x00, 0x00, 0x00, 0x80, 0x00, 0x00, 0x20, 0x80, 0x00, 0x02,
   0x08, 0xd8, 0x60, 0xc3, 0x86, 0x00, 0xfe, 0xf8, 0xe1, 0x8f, 0x3f, 0x3e,
   0xf8, 0x80, 0xc0, 0x07, 0xd8, 0x60, 0x83, 0x0d, 0x36, 0xd8, 0x61, 0xc1,
   0x8e, 0x01, 0xcc, 0x18, 0xc0, 0x0c, 0x33, 0x08, 0x20, 0x80, 0x00, 0x01,
   0xd8, 0x60, 0x83, 0x0d, 0x36, 0xd8, 0x61, 0xc3, 0x8e, 0x00, 0x8c, 0x08,
   0xc0, 0x08, 0x23, 0x08, 0x20, 0x80, 0x00, 0x01, 0xf8, 0xe0, 0x83, 0x0f,
   0x3e, 0xfc, 0xf0, 0xe7, 0x87, 0x01, 0x7c, 0x18, 0xc0, 0x07, 0x1f, 0x08,
   0x20, 0x80, 0x00, 0x01, 0x04, 0x11, 0x44, 0x10, 0x41, 0xc4, 0x16, 0x66,
   0xb6, 0x00, 0x8c, 0x08, 0xc0, 0x08, 0x23, 0x08, 0x20, 0x80, 0x00, 0x01,
   0x8c, 0x31, 0xc6, 0x18, 0x63, 0xcc, 0x32, 0x24, 0x96, 0xc3, 0xcc, 0x18,
   0xc0, 0x0c, 0x33, 0x08, 0x20, 0x80, 0x00, 0x01, 0xdf, 0x7f, 0xff, 0xfd,
   0xf7, 0xdf, 0x17, 0xfc, 0x3e, 0x3f, 0xfe, 0xf8, 0xe3, 0x8f, 0x3f, 0x3e,
   0xf8, 0xe0, 0xc3, 0x07, 0x00, 0x00, 0x00, 0x00, 0x00, 0x00, 0x00, 0x00,
   0x00, 0x04, 0x00, 0x00, 0x00, 0x00, 0x00, 0x00, 0x00, 0x00, 0x00, 0x00,
   0x0f, 0xa0, 0x81, 0x00, 0x0c, 0x3e, 0xa0, 0x01, 0x00, 0x04, 0xbe, 0x3c,
   0x30, 0xc6, 0x18, 0x61, 0x00, 0xe0, 0x03, 0x00, 0x33, 0xd8, 0x00, 0x03,
   0x02, 0x41, 0xd8, 0x60, 0x03, 0x18, 0x41, 0xcc, 0x10, 0x44, 0x10, 0x43,
   0x8c, 0x11, 0x04, 0x00, 0x41, 0x00, 0x00, 0x00, 0x00, 0x63, 0x00, 0x00,
   0x00, 0x07, 0x63, 0x04, 0x31, 0xc6, 0x18, 0x61, 0xd8, 0x30, 0x06, 0x02,
   0x63, 0x00, 0x00, 0x00, 0x00, 0x41, 0x00, 0x00, 0x40, 0x18, 0x41, 0x8c,
   0x11, 0x44, 0x10, 0x43, 0x58, 0x10, 0x84, 0x0d, 0x41, 0x9c, 0x0f, 0x00,
   0x00, 0x63, 0x00, 0xe0, 0x87, 0x0d, 0x63, 0x84, 0x31, 0xc6, 0x18, 0x61,
   0xdc, 0x01, 0x86, 0x0d, 0x63, 0x38, 0xef, 0x87, 0x1f, 0x41, 0xf8, 0xf1,
   0x1e, 0x02, 0x41, 0x0c, 0x11, 0x44, 0x10, 0x43, 0x20, 0x00, 0x84, 0x0d,
   0x61, 0x38, 0x72, 0xde, 0x79, 0x63, 0x9c, 0x73, 0x0c, 0x02, 0x63, 0x84,
   0x31, 0xc6, 0x18, 0x61, 0x20, 0x00, 0x83, 0x03, 0x43, 0xd8, 0x36, 0xc8,
   0x20, 0x41, 0x0c, 0x36, 0x18, 0x02, 0x41, 0x0c, 0x11, 0x44, 0x10, 0x43,
   0xfc, 0x81, 0x80, 0x0d, 0x31, 0x58, 0x73, 0xde, 0x79, 0x63, 0x9c, 0x73,
   0x0e, 0x02, 0x63, 0xc4, 0x30, 0xc6, 0x18, 0x61, 0x20, 0x00, 0x80, 0x0d,
   0x3b, 0x18, 0x77, 0xc4, 0x11, 0x41, 0x1c, 0x75, 0x94, 0x0d, 0x41, 0xec,
   0x10, 0x44, 0x10, 0x43, 0x20, 0x00, 0x80, 0x0d, 0x0f, 0x3c, 0xe2, 0x87,
   0x1f, 0x3e, 0xf8, 0xe1, 0x47, 0x90, 0x3e, 0x3c, 0xe0, 0x83, 0x0f, 0x3e,
   0xf8, 0x80, 0x80, 0x03, 0x00, 0x00, 0x00, 0x00, 0x00, 0x00, 0x00, 0x00,
   0x00, 0x00, 0x00, 0x00, 0x00, 0x00, 0x00, 0x08, 0x20, 0x80, 0x00, 0x00,
   0x00, 0x00, 0x00, 0x00, 0x00, 0x00, 0x00, 0x00, 0x00, 0x00, 0x00, 0x00,
   0x00, 0x00, 0x00, 0x00, 0x00, 0x00, 0x00, 0x00, 0x00, 0x00, 0x00, 0x00,
   0x00, 0x00, 0x00, 0x00, 0x00, 0x00, 0x00, 0x00, 0x00, 0x00, 0x00, 0x00,
   0x00, 0x00, 0x00, 0x00, 0x3e, 0xf8, 0xe0, 0x83, 0x0f, 0x3e, 0xf8, 0x00,
   0x00, 0x00, 0x3e, 0xf8, 0xe0, 0x83, 0x0f, 0x0f, 0x3c, 0xf0, 0xc0, 0x18,
   0x41, 0x04, 0x11, 0x44, 0x10, 0x41, 0x04, 0xe1, 0x1e, 0x0e, 0x41, 0x04,
   0x11, 0x44, 0x10, 0x08, 0x20, 0x80, 0x40, 0x10, 0x7e, 0xf8, 0xe1, 0x87,
   0x1f, 0x7e, 0xf8, 0x11, 0x8b, 0x01, 0x63, 0x8c, 0x31, 0xc6, 0x18, 0x08,
   0x20, 0x80, 0xc0, 0x18, 0x79, 0xe4, 0x91, 0x47, 0x1e, 0x79, 0xe4, 0x31,
   0x9b, 0x01, 0x7f, 0xfc, 0xf1, 0xc7, 0x1f, 0x08, 0x20, 0x80, 0x80, 0x0d,
   0x63, 0x8c, 0x31, 0xc6, 0x18, 0x63, 0x8c, 0x11, 0x87, 0x01, 0x01, 0x04,
   0x10, 0x40, 0x00, 0x08, 0x20, 0x80, 0x80, 0x0d, 0x41, 0x04, 0x11, 0x44,
   0x10, 0x41, 0x04, 0x31, 0x83, 0x01, 0x03, 0x0c, 0x30, 0xc0, 0x00, 0x08,
   0x20, 0x80, 0x00, 0x02, 0x63, 0x8c, 0x31, 0xc6, 0x18, 0x63, 0x8c, 0x11,
   0x83, 0x01, 0x61, 0x84, 0x11, 0x46, 0x18, 0x08, 0x20, 0x80, 0x00, 0x02,
   0x7e, 0xf8, 0xe1, 0x87, 0x1f, 0x7e, 0xf8, 0xe1, 0x1c, 0x0e, 0x3e, 0xf8,
   0xe0, 0x83, 0x0f, 0x7f, 0xfc, 0xf1, 0x07, 0x02, 0x00, 0x00, 0x00, 0x00,
   0x00, 0x00, 0x00, 0x00, 0x00, 0x02, 0x00, 0x00, 0x00, 0x00, 0x00, 0x00,
   0x00, 0x00, 0x80, 0x01, 0x00, 0x00, 0x00, 0x00, 0x0e, 0x00, 0x00, 0x00,
   0x00, 0x02, 0x00, 0x18, 0x80, 0x00, 0x02, 0x00, 0x00, 0x30, 0x80, 0x01,
   0x00, 0x00, 0x00, 0x80, 0x01, 0x00, 0x00, 0x00, 0x00, 0x0c, 0x00, 0x20,
   0x60, 0x80, 0x0d, 0x00, 0x00, 0x10, 0x40, 0x00, 0x00, 0x00, 0x00, 0x40,
   0x00, 0x00, 0x00, 0x00, 0x80, 0x03, 0x00, 0x00, 0x00, 0x00, 0x02, 0x00,
   0x00, 0x30, 0x00, 0x00, 0x3e, 0xec, 0xe0, 0xc7, 0x00, 0x3e, 0xf8, 0xe0,
   0x03, 0x00, 0x80, 0x01, 0x00, 0x00, 0x02, 0x43, 0x8c, 0xf1, 0xc3, 0x18,
   0x41, 0x1c, 0x11, 0xc6, 0x0f, 0x41, 0x04, 0x11, 0x04, 0x02, 0x78, 0x44,
   0x10, 0x81, 0x03, 0x61, 0x04, 0x31, 0x44, 0x10, 0x63, 0x84, 0x31, 0xc4,
   0x13, 0x63, 0x8c, 0x31, 0x06, 0x00, 0x66, 0xcc, 0x30, 0x03, 0x0c, 0x43,
   0x8c, 0x11, 0xc6, 0x18, 0x41, 0x0c, 0x11, 0x46, 0x18, 0x41, 0x04, 0x11,
   0x04, 0x00, 0x46, 0xc4, 0x10, 0x03, 0x0c, 0x61, 0xd8, 0x30, 0x84, 0x0d,
   0x63, 0x84, 0x31, 0xc4, 0x10, 0x63, 0x8c, 0x31, 0xc6, 0x1f, 0x66, 0xcc,
   0x30, 0x03, 0x0e, 0x43, 0xd8, 0x10, 0x86, 0x0d, 0x41, 0x0c, 0x11, 0x46,
   0x18, 0x41, 0x04, 0x11, 0x04, 0x00, 0x46, 0xc4, 0x10, 0x83, 0x0d, 0x61,
   0x20, 0x30, 0x04, 0x02, 0x63, 0x84, 0x31, 0xc4, 0x18, 0x63, 0x8c, 0x31,
   0x06, 0x00, 0x66, 0xcc, 0x30, 0x83, 0x0d, 0x73, 0x20, 0x10, 0x06, 0x02,
   0x3e, 0x0c, 0xe1, 0x87, 0x0f, 0x3e, 0xf8, 0xe0, 0x03, 0x02, 0x3e, 0x38,
   0xe1, 0x84, 0x0f, 0x6e, 0x20, 0xf0, 0x03, 0x02, 0x00, 0x00, 0x00, 0x06,
   0x00, 0x00, 0x00, 0x00, 0x00, 0x00, 0x01, 0x00, 0x00, 0x00, 0x00, 0x00,
   0x18, 0x00, 0x80, 0x01, 0x00, 0x00, 0x00, 0x04, 0x00, 0x00, 0x00, 0x00,
   0x00, 0x00, 0x00, 0x00, 0x00, 0x00, 0x00, 0x00, 0x18, 0x00, 0x80, 0x01,
   0x00, 0x00, 0xe0, 0x03, 0x00, 0x00, 0x00, 0x00, 0x00, 0x00, 0x00, 0x00,
   0x00, 0x00, 0x00, 0x00, 0x04, 0x00, 0x40, 0x00, 0x00, 0x00, 0x00, 0x00,
   0x00, 0x00, 0x00, 0x00, 0x00, 0x00, 0x00, 0x00, 0x00, 0x00, 0x00, 0x00,
   0x00, 0x00, 0x00, 0x00, 0x00, 0x00, 0x00, 0x00, 0x00, 0x00, 0x00, 0x00,
   0x00, 0x00, 0x00, 0x00, 0x00, 0x00, 0x00, 0x00, 0x00, 0x00, 0x00, 0x00,
   0x00, 0x00, 0x00, 0x00, 0x00, 0x00, 0x00, 0x00, 0x00, 0x00, 0x00, 0x00,
   0x00, 0x00, 0x00, 0x00, 0x00, 0x00, 0x00, 0x00, 0x00, 0x00, 0x00, 0x00,
   0x00, 0x00, 0x00, 0x00, 0x00, 0x00, 0x00, 0x00, 0x00, 0x00, 0x00, 0x00,
   0x00, 0x00, 0x00, 0x00, 0x00, 0x00, 0x00, 0x00, 0x00, 0x00, 0x00, 0x00,
   0x00, 0x00, 0x00, 0x00, 0x00, 0x00, 0x00, 0x00, 0x00, 0x00, 0x00, 0x00,
   0x00, 0x00, 0x00, 0x00, 0x00, 0x00, 0x00, 0x00, 0x00, 0x00, 0x00, 0x00,
   0x00, 0x00, 0x00, 0x00, 0x00, 0x00, 0x00, 0x00, 0x00, 0x00, 0x00, 0x00,
   0x00, 0x00, 0x00, 0x00, 0x00, 0x00, 0x00, 0x00, 0x00, 0x00, 0x00, 0x00,
   0x00, 0x00, 0x00, 0x00, 0x00, 0x00, 0x00, 0x00, 0x00, 0x00, 0x00, 0x00,
   0x00, 0x00, 0x00, 0x00, 0x00, 0x00, 0x00, 0x00, 0x00, 0x00, 0x00, 0x00,
   0x00, 0x00, 0x00, 0x00, 0x00, 0x00, 0x00, 0x00, 0x00, 0x00, 0x00, 0x00,
   0x00, 0x00, 0x00, 0x00, 0x00, 0x00, 0x00, 0x00, 0x00, 0x00, 0x00, 0x00,
   0x00, 0x00, 0x00, 0x00, 0x00, 0x00, 0x00, 0x00, 0x00, 0x00, 0x00, 0x00,
   0x00, 0x00, 0x00, 0x00, 0x00, 0x00, 0x00, 0x00, 0x00, 0x00, 0x00, 0x00,
   0x00, 0x00, 0x00, 0x00, 0x00, 0x00, 0x00, 0x00, 0x00, 0x00, 0x00, 0x00,
   0x00, 0x00, 0x00, 0x00, 0x00, 0x00, 0x00, 0x00, 0x00, 0x00, 0x00, 0x00,
   0x00, 0x00, 0x00, 0x00, 0x00, 0x00, 0x00, 0x00, 0x00, 0x00, 0x00, 0x00,
   0x00, 0x00, 0x00, 0x00, 0x00, 0x00, 0x00, 0x00, 0x00, 0x00, 0x00, 0x00,
   0x00, 0x00, 0x00, 0x00, 0x00, 0x00, 0x00, 0x00, 0x00, 0x00, 0x00, 0x00,
   0x00, 0x00, 0x00, 0x00, 0x00, 0x00, 0x00, 0x00, 0x00, 0x00, 0x00, 0x00,
   0x00, 0x00, 0x00, 0x00, 0x00, 0x00, 0x00, 0x00, 0x00, 0x00, 0x00, 0x00,
   0x00, 0x00, 0x00, 0x00, 0x00, 0x00, 0x00, 0x00, 0x00, 0x00, 0x00, 0x00,
   0x00, 0x00, 0x00, 0x00, 0x00, 0x00, 0x00, 0x00, 0x00, 0x00, 0x00, 0x00,
   0x00, 0x00, 0x00, 0x00, 0x00, 0x00, 0x00, 0x00, 0x00, 0x00, 0x00, 0x00,
   0x00, 0x00, 0x00, 0x00, 0x00, 0x00, 0x00, 0x00, 0x00, 0x00, 0x00, 0x00,
   0x00, 0x00, 0x00, 0x00, 0x00, 0x00, 0x00, 0x00, 0x00, 0x00, 0x00, 0x00,
   0x00, 0x00, 0x00, 0x00, 0x00, 0x00, 0x00, 0x00 };
